<svg width="2842" height="2188" viewBox="0 0 2842 2188" version="1.1" xmlns="http://www.w3.org/2000/svg" xmlns:xlink="http://www.w3.org/1999/xlink">
<title>helmet</title>
<desc>Created using Figma</desc>
<g id="Canvas" transform="translate(5643 1790)">
<g id="helmet">
<g id="Vector">
<use xlink:href="#path0_fill" transform="translate(-5438.51 -1787.47)" fill="#1A1818"/>
</g>
<g id="Vector">
<use xlink:href="#path1_fill" transform="translate(-5542.34 -976.663)" fill="#1A1818"/>
</g>
<g id="Vector">
<use xlink:href="#path2_fill" transform="translate(-4687.51 -1396.19)" fill="#1A1818"/>
</g>
<g id="Vector">
<use xlink:href="#path3_fill" transform="translate(-3646.84 -845.042)" fill="#1A1818"/>
</g>
<g id="Vector">
<use xlink:href="#path4_fill" transform="translate(-5401.88 -16.5493)" fill="#1A1818"/>
</g>
<g id="Vector">
<use xlink:href="#path5_fill" transform="translate(-4181.2 -631.713)" fill="#1A1818"/>
</g>
<g id="Vector">
<use xlink:href="#path6_fill" transform="translate(-4832.88 -394.26)" fill="#1A1818"/>
</g>
<g id="Vector">
<use xlink:href="#path7_fill" transform="translate(-5147.64 -1779.13)" fill="#1A1818"/>
</g>
<g id="Vector">
<use xlink:href="#path8_fill" transform="translate(-5640.92 -681.328)" fill="#1A1818"/>
</g>
<g id="Vector">
<use xlink:href="#path9_fill" transform="translate(-5542.11 -1210.44)" fill="#1A1818"/>
</g>
<g id="Vector">
<use xlink:href="#path10_fill" transform="translate(-5480.17 -803.504)" fill="#1A1818"/>
</g>
<g id="Vector">
<use xlink:href="#path11_stroke" transform="translate(-5438.68 -1787.47)" fill="#FFFFFF"/>
</g>
<g id="Vector">
<use xlink:href="#path12_stroke" transform="translate(-5039.55 -1482.6)" fill="#FFFFFF"/>
</g>
<g id="Vector">
<use xlink:href="#path13_stroke" transform="translate(-5147.64 -1779.13)" fill="#FFFFFF"/>
</g>
<g id="Vector">
<use xlink:href="#path14_stroke" transform="translate(-5401.84 -16.5493)" fill="#FFFFFF"/>
</g>
<g id="Vector">
<use xlink:href="#path15_stroke" transform="translate(-5640.94 -681.324)" fill="#FFFFFF"/>
</g>
<g id="Vector">
<use xlink:href="#path16_stroke" transform="translate(-5401.84 -16.5905)" fill="#FFFFFF"/>
</g>
<g id="Vector">
<use xlink:href="#path17_stroke" transform="translate(-4623.84 -1396.23)" fill="#FFFFFF"/>
</g>
<g id="Vector">
<use xlink:href="#path18_stroke" transform="translate(-4127.66 -1225.65)" fill="#FFFFFF"/>
</g>
<g id="Vector">
<use xlink:href="#path19_stroke" transform="translate(-4931.32 -1391.65)" fill="#FFFFFF"/>
</g>
<g id="Vector">
<use xlink:href="#path20_stroke" transform="translate(-5037.32 -631.837)" fill="#FFFFFF"/>
</g>
<g id="Vector">
<use xlink:href="#path21_stroke" transform="translate(-5542.35 -1210.4)" fill="#FFFFFF"/>
</g>
<g id="Vector">
<use xlink:href="#path22_stroke" transform="translate(-5542.11 -976.663)" fill="#FFFFFF"/>
</g>
<g id="Vector">
<use xlink:href="#path23_stroke" transform="translate(-5479.63 -804.122)" fill="#FFFFFF"/>
</g>
<g id="Vector">
<use xlink:href="#path24_stroke" transform="translate(-4832.97 -392.284)" fill="#FFFFFF"/>
</g>
<g id="Vector">
<use xlink:href="#path25_stroke" transform="translate(-4466.72 -137.828)" fill="#FFFFFF"/>
</g>
<g id="Vector">
<use xlink:href="#path26_stroke" transform="translate(-4181.2 -631.713)" fill="#FFFFFF"/>
</g>
<g id="Vector">
<use xlink:href="#path27_stroke" transform="translate(-3646.84 -845.042)" fill="#FFFFFF"/>
</g>
<g id="Vector">
<use xlink:href="#path28_stroke" transform="translate(-3466.37 -624.306)" fill="#FFFFFF"/>
</g>
<g id="Vector">
<use xlink:href="#path29_stroke" transform="translate(-3911.2 -435.494)" fill="#FFFFFF"/>
</g>
<g id="Vector">
<use xlink:href="#path30_fill" transform="translate(-3793.25 -696.469)" fill="#FFFFFF"/>
</g>
<g id="Vector">
<use xlink:href="#path31_fill" transform="translate(-4262 -696.51)" fill="#FFFFFF"/>
</g>
<g id="Vector">
<use xlink:href="#path32_fill" transform="translate(-4613.25 -696.469)" fill="#FFFFFF"/>
</g>
<g id="Vector">
<use xlink:href="#path33_fill" transform="translate(-5119.64 -694.287)" fill="#FFFFFF"/>
</g>
<g id="Vector">
<use xlink:href="#path34_stroke" transform="translate(-5119.64 -694.329)" fill="#010201"/>
</g>
<g id="Vector">
<use xlink:href="#path35_stroke" transform="translate(-4825.72 -595.82)" fill="#000100"/>
</g>
<g id="Vector">
<use xlink:href="#path36_stroke" transform="translate(-4613.25 -696.51)" fill="#000100"/>
</g>
<g id="Vector">
<use xlink:href="#path37_stroke" transform="translate(-4262 -696.469)" fill="#000100"/>
</g>
<g id="Vector">
<use xlink:href="#path38_stroke" transform="translate(-3793.25 -696.469)" fill="#000100"/>
</g>
<g id="Vector">
<use xlink:href="#path39_stroke" transform="translate(-4073.05 -573.357)" fill="#000100"/>
</g>
</g>
</g>
<defs>
<path id="path0_fill" d="M 1591.93 309.317C 1624.43 307.506 1655.56 306.065 1684.8 304.953C 1763.05 296.72 2156.39 690.033 2362.31 1048.6C 2598.13 1470.2 2671.64 1941.64 2618.02 2047.86C 2451.35 2078.85 2244.32 2038.84 2024.52 1958.81C 1815.97 1882.9 1595.84 1770.92 1387.7 1649.64C 1243.85 1565.79 1105.68 1477.36 981.015 1393.09C 852.604 1306.39 738.526 1224.3 647.057 1155.92C 511.151 1054.41 425.283 983.885 417.5 975.775C 415.523 971.988 409.016 960.955 398.967 944.118C 360.296 879.032 269.239 728.113 183.947 577.358C 72.4222 380.29 -29.3836 183.551 7.80515 179.064C 4.22217 155.64 212.735 161.321 447.852 172.889C 723.288 186.309 1035.34 207.552 1086.2 198.989C 1092.58 138.802 375.204 17.1526 291.066 8.34276C 344.193 -16.0283 1283.1 -6.14815 1591.93 309.235L 1591.93 309.317ZM 1257.32 1257.69C 1343.98 1326.24 1434.1 1390.31 1527.31 1449.65C 1842.04 1650.55 2185.35 1798.71 2395.51 1808.8C 2399.62 1619.43 2285.79 1366.21 2158.33 1163.05C 2110.36 1085.8 2056.99 1012.04 1998.62 942.306C 1806 703.289 1631.63 577.111 1578.55 567.19C 1500.3 545.618 1310.85 596.007 1310.85 596.007C 1072.32 461.142 814.633 391.323 814.633 391.323C 814.629 397.949 814.959 404.572 815.621 411.165L 814.633 411.165C 814.633 411.165 512.757 381.607 507.444 404.537C 501.061 431.831 599.449 588.514 750.963 771.297C 801.125 831.854 857.176 895.252 917.139 957.744C 1018.57 1063.46 1131.29 1166.54 1246.32 1249C 1249.98 1251.93 1253.65 1254.85 1257.32 1257.69Z"/>
<path id="path1_fill" d="M 110.606 172.953C 47.7601 89.9598 -3.55464 29.3203 0.193065 20.3046C 0.193065 20.3046 99.6926 -16.2108 235.846 8.69545C 379.123 41.2177 498.02 129.686 502.592 133.062C 512.641 149.941 519.065 160.932 521.124 164.72C 528.908 172.953 614.652 243.349 750.682 344.868C 750.682 344.868 546.37 365.452 504.857 423.539C 511.281 495.705 593.813 598.088 709.086 702.406C 814.763 797.956 947.951 895.152 1075.21 972.176C 1205.27 1050.93 1329.19 1108.77 1411.51 1122.35C 1655.61 1174.6 2030.26 1171.1 2128.11 1147.84C 2347.9 1227.83 2554.94 1267.88 2721.6 1236.88C 2670.78 1295.18 2200.18 1342.89 2024.7 1350.01C 2009.83 1350.63 1997.06 1350.96 1986.85 1350.96C 1856.21 1350.96 1282.16 1321.69 1129.41 1285.09C 956.435 1217.25 757.971 1092.14 597.314 972.423C 430.644 848.18 304.457 729.742 288.643 686.928C 290.249 682.564 291.896 678.365 293.709 674.248C 311.376 633.492 336.622 604.263 312.447 519.87C 279.665 406.331 186.672 273.278 110.606 172.953Z"/>
<path id="path2_fill" d="M 1068.88 961.175C 998.867 891.602 925.807 821.206 854.148 764.519C 847.723 759.332 841.257 754.351 834.833 749.452C 698.597 632.907 490.414 494.626 420.69 486.31C 384.037 480.752 255.956 510.022 166.176 566.463C 106.213 503.971 50.1204 440.573 -1.00546e-05 380.016C -1.00546e-05 380.016 153.368 358.485 159.998 308.714C 188.374 253.591 76.1896 141.657 64.6994 19.8426C 64.0373 13.2492 63.7074 6.62661 63.711 7.53797e-06C 63.711 7.53797e-06 321.397 69.8198 559.85 204.478C 576.076 213.659 592.179 223.086 608.158 232.843C 767.827 343.048 915.017 475.401 1040.59 607.466C 1107.34 677.862 1167.93 748.175 1221.05 815.072C 1395.55 1035.03 1489.61 1219.38 1455.14 1251.16C 1400.7 1309.53 1245.6 1137.33 1068.88 961.175Z"/>
<path id="path3_fill" d="M 366.575 220.575C 363.734 220.575 285.073 220.328 246.813 228.808C 210.86 235.724 180.467 264.13 180.467 264.13C 127.34 197.356 66.9233 127.042 0 56.7698C 0 56.7698 95.7105 63.0684 138.871 48.1246C 172.065 35.3627 206.948 -3.51772e-05 206.948 -3.51772e-05C 265.28 69.6806 318.622 143.389 366.575 220.575Z"/>
<path id="path4_fill" d="M 1846.38 390.843C 1856.6 390.843 1869.36 390.513 1884.23 389.896L 1884.23 390.884C 1148.86 445.513 271.441 390.884 112.102 273.557C 92.3748 275.204 1.89444 5.63989 -6.28412e-06 -3.51772e-05C 155.674 39.3148 454.914 14.8614 454.914 14.8614L 456.767 12.3502C 617.383 132.065 815.723 257.172 988.859 325.016C 1141.69 361.532 1715.71 390.843 1846.38 390.843Z"/>
<path id="path5_fill" d="M 562.568 196.698C 559.561 196.698 488.437 192.581 428.392 210.365C 428.392 210.365 357.432 231.402 269.958 293.894C 176.753 234.555 86.6489 170.483 7.02305e-13 101.93C 5.55979 101.148 176.884 76.9829 256.656 50.677C 317.896 34.2101 347.837 -5.02531e-06 347.837 -5.02531e-06C 419.496 56.8521 492.72 127.125 562.568 196.698Z"/>
<path id="path6_fill" d="M 782.076 256.431C 778.494 256.884 649.877 272.487 567.922 299.534C 567.922 299.534 422.338 357.744 366.122 390.102C 238.782 313.078 105.677 215.882 -2.26228e-05 120.332C 136.153 129.348 229.763 89.1273 229.763 89.1273C 283.302 68.9553 373.906 2.26424 373.906 2.26424L 375.43 -3.51772e-05C 500.051 83.9814 638.181 172.45 782.076 256.431Z"/>
<path id="path7_fill" d="M 0.196761 5.65348e-06C 84.3348 8.80982 801.712 130.459 795.081 190.358C 744.343 198.921 432.295 177.678 156.736 164.258C 156.736 164.258 -6.4338 26.5529 0.196761 5.65348e-06Z"/>
<path id="path8_fill" d="M 387.18 391.634C 402.994 434.448 529.181 552.927 695.851 677.129L 693.998 679.641C 693.998 679.641 394.758 704.094 239.084 664.779C 200.907 655.146 171.337 641.684 156.717 623.035C 20.7283 501.798 -32.3985 -7.81318 19.6987 0.0909489C 37.7783 -0.691231 70.5604 52.5382 160.794 152.41C 233.495 232.298 310.776 307.899 392.246 378.831C 390.433 382.947 388.951 387.064 387.18 391.634Z"/>
<path id="path9_fill" d="M 502.399 366.801C 497.827 363.425 378.848 274.957 235.653 242.435C 99.4996 217.734 1.25682e-05 254.044 1.25682e-05 254.044C 21.5802 199.25 287.42 -1.25633e-05 287.42 -1.25633e-05C 372.506 150.837 463.727 301.757 502.399 366.801Z"/>
<path id="path10_fill" d="M 250.232 346.753C 274.406 431.269 249.161 460.374 231.493 501.13C 150.006 430.16 72.7112 354.518 -1.50819e-05 274.586L 0.741291 273.928C 0.741291 273.928 64.2464 273.928 80.8434 204.231C 98.3052 108.105 51.603 6.83373 48.4319 -5.02531e-05C 124.498 100.119 217.491 233.172 250.232 346.753Z"/>
<path id="path11_stroke" d="M 397.329 944.803C 397.867 945.707 399.035 946.005 399.94 945.467C 400.844 944.93 401.142 943.761 400.605 942.857L 397.329 944.803ZM 183.947 577.07L 185.605 576.132L 185.605 576.131L 183.947 577.07ZM 7.80514 178.776L 8.03335 180.667C 8.54534 180.605 9.01042 180.338 9.3223 179.928C 9.63418 179.517 9.76622 178.997 9.68824 178.488L 7.80514 178.776ZM 447.852 172.6L 447.758 174.503L 447.759 174.503L 447.852 172.6ZM 1086.2 198.701L 1086.51 200.579C 1087.35 200.438 1088 199.755 1088.09 198.908L 1086.2 198.701ZM 291.231 8.34276L 290.436 6.61125C 289.656 6.96916 289.212 7.80466 289.351 8.65168C 289.49 9.4987 290.179 10.148 291.032 10.2374L 291.231 8.34276ZM 1590.74 310.568C 1591.47 311.319 1592.68 311.332 1593.43 310.596C 1594.18 309.86 1594.19 308.654 1593.46 307.902L 1590.74 310.568ZM 400.605 942.857C 361.925 877.757 270.884 726.864 185.605 576.132L 182.289 578.008C 267.594 728.786 358.666 879.731 397.329 944.803L 400.605 942.857ZM 185.605 576.131C 129.847 477.605 76.5448 379.207 41.8345 304.899C 24.4704 267.725 11.8048 236.676 5.79268 214.687C 2.77714 203.658 1.49384 195.107 2.01956 189.266C 2.28154 186.355 2.97846 184.299 3.9669 182.948C 4.90671 181.664 6.20046 180.888 8.03335 180.667L 7.57694 176.884C 4.76123 177.224 2.49228 178.511 0.892152 180.698C -0.65933 182.818 -1.47957 185.641 -1.7751 188.924C -2.36439 195.472 -0.924101 204.567 2.11757 215.692C 8.2199 238.011 21.0031 269.305 38.3825 306.511C 73.1593 380.961 126.523 479.467 182.289 578.008L 185.605 576.131ZM 9.68824 178.488C 9.58984 177.844 9.77764 177.093 10.8441 176.138C 11.961 175.139 13.8612 174.105 16.6781 173.106C 22.2842 171.117 30.877 169.481 42.2025 168.195C 64.809 165.627 97.796 164.502 138.317 164.471C 219.335 164.409 330.201 168.719 447.758 174.503L 447.945 170.698C 330.385 164.914 219.436 160.599 138.315 160.661C 97.7661 160.692 64.6019 161.816 41.7725 164.409C 30.3801 165.703 21.4339 167.376 15.4043 169.515C 12.4034 170.58 9.96165 171.815 8.30296 173.3C 6.59389 174.829 5.57258 176.779 5.92204 179.064L 9.68824 178.488ZM 447.759 174.503C 585.526 181.216 732.271 189.875 851.145 195.797C 910.548 198.756 962.949 201.029 1003.69 202.027C 1044.33 203.022 1073.58 202.757 1086.51 200.579L 1085.88 196.822C 1073.39 198.926 1044.55 199.216 1003.78 198.218C 963.093 197.221 910.731 194.95 851.335 191.992C 732.61 186.078 585.614 177.406 447.945 170.698L 447.759 174.503ZM 1088.09 198.908C 1088.61 194.164 1085.52 189.606 1080.51 185.338C 1075.41 180.995 1067.82 176.528 1058.19 171.964C 1038.9 162.823 1010.97 153.09 977.118 143.099C 909.392 123.111 817.642 102.001 723.106 82.4977C 534.049 43.4939 333.595 10.8632 291.429 6.44812L 291.032 10.2374C 333.004 14.6321 533.308 47.2311 722.337 86.2291C 816.844 105.727 908.469 126.811 976.039 146.753C 1009.84 156.729 1037.54 166.395 1056.55 175.407C 1066.07 179.918 1073.31 184.216 1078.04 188.239C 1082.85 192.338 1084.6 195.75 1084.3 198.494L 1088.09 198.908ZM 292.025 10.0743C 295.036 8.69303 301.527 7.32535 311.43 6.13211C 321.237 4.9504 334.147 3.96384 349.801 3.2419C 381.106 1.79825 423.3 1.41659 473.428 2.62931C 573.682 5.05469 705.604 13.8556 845.511 33.268C 985.424 52.6812 1133.27 82.7002 1265.41 127.545C 1397.57 172.401 1513.83 232.032 1590.74 310.568L 1593.46 307.902C 1515.95 228.746 1399.03 168.874 1266.63 123.937C 1134.2 78.9896 986.093 48.9274 846.035 29.4941C 705.97 10.0599 573.903 1.24893 473.52 -1.17957C 423.329 -2.3938 381.043 -2.01289 349.626 -0.564055C 333.92 0.160254 320.908 1.15242 310.974 2.34947C 301.136 3.53499 294.066 4.94611 290.436 6.61125L 292.025 10.0743Z"/>
<path id="path12_stroke" d="M 351.731 464.543C 350.689 464.689 349.963 465.653 350.11 466.695C 350.256 467.736 351.219 468.462 352.261 468.316L 351.731 464.543ZM 511.994 395.128L 510.301 394.256C 510.201 394.45 510.135 394.66 510.106 394.876L 511.994 395.128ZM 416.696 106.256L 418.592 106.078L 418.591 106.066L 416.696 106.256ZM 415.707 86.4139L 414.966 84.6588C 414.261 84.9564 413.803 85.6473 413.802 86.4128L 415.707 86.4139ZM 1192.97 4.49083L 1193.07 6.39315L 1193.07 6.39288L 1192.97 4.49083ZM 1285.83 0.127102L 1285.91 2.03073C 1285.95 2.02911 1285.99 2.02609 1286.03 2.02164L 1285.83 0.127102ZM 1963.35 743.774L 1965.01 742.844C 1965 742.838 1965 742.832 1965 742.826L 1963.35 743.774ZM 2219.05 1743.03L 2219.4 1744.9C 2219.99 1744.79 2220.49 1744.42 2220.75 1743.89L 2219.05 1743.03ZM 1625.56 1653.98L 1624.91 1655.77L 1624.91 1655.77L 1625.56 1653.98ZM 988.736 1344.78L 987.776 1346.42L 987.777 1346.42L 988.736 1344.78ZM 582.048 1088.22L 583.115 1086.64L 583.114 1086.64L 582.048 1088.22ZM 248.09 851.056L 249.231 849.531L 249.23 849.53L 248.09 851.056ZM 18.5326 670.908L 16.8438 671.789C 16.9274 671.949 17.0332 672.097 17.1582 672.227L 18.5326 670.908ZM 1.63583 638.274C 1.09664 637.37 -0.0728316 637.075 -0.97627 637.614C -1.87971 638.154 -2.175 639.323 -1.63581 640.227L 1.63583 638.274ZM 351.996 466.43C 352.261 468.316 352.262 468.316 352.263 468.316C 352.265 468.316 352.267 468.315 352.269 468.315C 352.274 468.314 352.282 468.313 352.291 468.312C 352.311 468.309 352.339 468.305 352.377 468.3C 352.452 468.289 352.564 468.273 352.711 468.252C 353.004 468.209 353.439 468.145 354.005 468.059C 355.136 467.888 356.794 467.632 358.906 467.288C 363.128 466.599 369.163 465.56 376.425 464.158C 390.943 461.355 410.386 457.095 430.05 451.27C 449.693 445.45 469.657 438.041 485.164 428.908C 500.564 419.837 512.101 408.754 513.883 395.379L 510.106 394.876C 508.572 406.388 498.452 416.66 483.231 425.625C 468.116 434.527 448.495 441.832 428.968 447.616C 409.461 453.395 390.148 457.628 375.702 460.417C 368.482 461.811 362.484 462.844 358.292 463.527C 356.197 463.869 354.554 464.123 353.436 464.292C 352.877 464.376 352.449 464.439 352.162 464.481C 352.018 464.502 351.91 464.518 351.838 464.528C 351.802 464.533 351.775 464.537 351.757 464.54C 351.748 464.541 351.741 464.542 351.737 464.542C 351.735 464.543 351.734 464.543 351.732 464.543C 351.732 464.543 351.731 464.543 351.996 466.43ZM 513.688 396C 521.147 381.51 519.247 363.541 512.498 343.265C 505.735 322.947 493.937 299.842 480.986 274.826C 455.008 224.641 424.296 166.546 418.592 106.078L 414.799 106.435C 420.586 167.781 451.711 226.56 477.603 276.577C 490.588 301.661 502.233 324.489 508.883 344.468C 515.548 364.491 517.03 381.184 510.301 394.256L 513.688 396ZM 418.591 106.066C 417.935 99.5363 417.609 92.9776 417.612 86.4149L 413.802 86.4128C 413.799 93.1034 414.132 99.7898 414.8 106.447L 418.591 106.066ZM 416.448 88.169C 423.665 85.1227 436.484 81.7772 454.129 78.2337C 471.727 74.6995 493.99 70.9939 520.008 67.1968C 572.041 59.6029 639.023 51.6531 713.598 43.9819C 862.745 28.6398 1042.2 14.419 1193.07 6.39314L 1192.86 2.58852C 1041.93 10.6179 862.415 24.8437 713.208 40.1919C 638.606 47.8659 571.565 55.8221 519.458 63.4267C 493.406 67.2288 471.069 70.9456 453.378 74.4983C 435.734 78.0417 422.575 81.4476 414.966 84.6588L 416.448 88.169ZM 1193.07 6.39288C 1225.55 4.58215 1256.68 3.14183 1285.91 2.03073L 1285.76 -1.77652C 1256.51 -0.664584 1225.36 0.776786 1192.86 2.58878L 1193.07 6.39288ZM 1286.03 2.02164C 1290.53 1.54891 1296.34 2.50807 1303.45 4.98159C 1310.53 7.44623 1318.76 11.3651 1328.02 16.6635C 1346.54 27.2597 1369.04 43.2793 1394.55 63.9062C 1445.56 105.153 1508.44 164.685 1575.33 235.706C 1709.11 377.753 1858.83 565.604 1961.69 744.723L 1965 742.826C 1861.94 563.377 1712.03 375.288 1578.1 233.094C 1511.14 161.995 1448.13 102.333 1396.95 60.9436C 1371.36 40.2526 1348.68 24.0942 1329.91 13.3564C 1320.53 7.98766 1312.08 3.95058 1304.7 1.38327C 1297.35 -1.17515 1290.92 -2.32389 1285.63 -1.76744L 1286.03 2.02164ZM 1961.68 744.704C 2079.49 955.323 2156.76 1178.41 2197.88 1362.09C 2218.44 1453.93 2229.95 1535.88 2232.98 1601.46C 2234.49 1634.26 2233.89 1662.93 2231.24 1686.68C 2228.59 1710.46 2223.91 1729.19 2217.35 1742.17L 2220.75 1743.89C 2227.6 1730.32 2232.36 1711.08 2235.03 1687.1C 2237.7 1663.09 2238.31 1634.21 2236.79 1601.29C 2233.74 1535.43 2222.19 1453.25 2201.6 1361.25C 2160.41 1177.26 2083.02 953.82 1965.01 742.844L 1961.68 744.704ZM 2218.71 1741.16C 2052.54 1772.06 1845.9 1732.19 1626.21 1652.19L 1624.91 1655.77C 1844.8 1735.84 2052.23 1776 2219.4 1744.9L 2218.71 1741.16ZM 1626.21 1652.19C 1417.8 1576.29 1197.78 1464.38 989.695 1343.13L 987.777 1346.42C 1195.97 1467.73 1416.21 1579.77 1624.91 1655.77L 1626.21 1652.19ZM 989.695 1343.13C 845.884 1259.3 707.75 1170.89 583.115 1086.64L 580.981 1089.8C 705.671 1174.09 843.878 1262.54 987.776 1346.42L 989.695 1343.13ZM 583.114 1086.64C 454.731 999.963 340.677 917.893 249.231 849.531L 246.949 852.582C 338.44 920.977 452.544 1003.08 580.982 1089.8L 583.114 1086.64ZM 249.23 849.53C 181.292 798.782 125.864 755.784 86.4507 724.462C 66.7439 708.801 51.0442 696.062 39.7885 686.735C 28.4826 677.365 21.7593 671.519 19.907 669.589L 17.1582 672.227C 19.1978 674.352 26.1269 680.362 37.3574 689.668C 48.6382 699.017 64.359 711.773 84.0803 727.445C 123.524 758.791 178.982 801.812 246.95 852.582L 249.23 849.53ZM 20.2214 670.026C 18.2123 666.177 11.666 655.08 1.63583 638.274L -1.63581 640.227C 8.43162 657.095 14.8993 668.064 16.8438 671.789L 20.2214 670.026Z"/>
<path id="path13_stroke" d="M 2.04506 0.461533C 2.29995 -0.559226 1.6791 -1.59335 0.658337 -1.84824C -0.362422 -2.10314 -1.39654 -1.48228 -1.65144 -0.461522L 2.04506 0.461533ZM 155.466 165.672C 156.27 166.351 157.472 166.249 158.15 165.445C 158.829 164.641 158.727 163.439 157.923 162.761L 155.466 165.672ZM -1.65144 -0.461522C -2.19325 1.70825 -1.82495 4.21058 -0.943749 6.82788C -0.0517791 9.47715 1.43655 12.4503 3.38899 15.668C 7.29563 22.1064 13.2031 29.7547 20.4101 38.1055C 34.8351 54.8198 54.6605 74.5698 74.6511 93.4506C 94.6507 112.34 114.853 130.394 130.053 143.724C 137.654 150.39 144.006 155.875 148.458 159.695C 150.684 161.605 152.435 163.099 153.63 164.115C 154.227 164.623 154.686 165.012 154.995 165.274C 155.15 165.405 155.267 165.505 155.346 165.571C 155.386 165.605 155.416 165.63 155.435 165.647C 155.445 165.655 155.453 165.662 155.458 165.666C 155.461 165.668 155.463 165.67 155.464 165.671C 155.465 165.672 155.466 165.672 156.694 164.217C 157.923 162.761 157.923 162.76 157.921 162.759C 157.92 162.758 157.918 162.757 157.916 162.755C 157.911 162.751 157.904 162.744 157.894 162.736C 157.874 162.72 157.845 162.695 157.806 162.662C 157.728 162.596 157.612 162.497 157.458 162.367C 157.15 162.107 156.694 161.719 156.098 161.213C 154.907 160.2 153.16 158.71 150.938 156.804C 146.495 152.991 140.154 147.515 132.565 140.859C 117.386 127.548 97.2209 109.527 77.2672 90.6807C 57.3046 71.8264 37.5912 52.1818 23.2945 35.6162C 16.1407 27.3271 10.3916 19.8641 6.64626 13.6916C 4.77272 10.6039 3.43624 7.89664 2.66709 5.61217C 1.88717 3.29571 1.75805 1.61088 2.04506 0.461533L -1.65144 -0.461522Z"/>
<path id="path14_stroke" d="M 0.466457 -1.84704C -0.553618 -2.10466 -1.58939 -1.48657 -1.84701 -0.46649C -2.10462 0.553585 -1.48653 1.58936 -0.466452 1.84697L 0.466457 -1.84704ZM 455.069 16.7601C 456.118 16.6744 456.898 15.7549 456.813 14.7063C 456.727 13.6577 455.807 12.8771 454.759 12.9628L 455.069 16.7601ZM -0.466452 1.84697C 77.6352 21.5712 191.586 25.2776 285.859 24.0786C 333.027 23.4787 375.324 21.6494 405.83 19.9701C 421.083 19.1304 433.39 18.3282 441.885 17.7358C 446.132 17.4396 449.426 17.1958 451.66 17.026C 452.777 16.9411 453.628 16.8747 454.201 16.8295C 454.487 16.8069 454.704 16.7896 454.849 16.7779C 454.922 16.7721 454.977 16.7676 455.013 16.7647C 455.032 16.7632 455.046 16.762 455.055 16.7613C 455.06 16.7609 455.063 16.7606 455.065 16.7604C 455.068 16.7602 455.069 16.7601 454.914 14.8614C 454.759 12.9628 454.758 12.9629 454.756 12.963C 454.754 12.9632 454.75 12.9635 454.746 12.9638C 454.737 12.9646 454.724 12.9656 454.706 12.9671C 454.67 12.97 454.616 12.9744 454.544 12.9801C 454.4 12.9917 454.186 13.0088 453.901 13.0313C 453.332 13.0762 452.484 13.1423 451.371 13.2269C 449.145 13.3962 445.858 13.6394 441.619 13.935C 433.141 14.5263 420.853 15.3273 405.621 16.1659C 375.154 17.843 332.912 19.6698 285.811 20.2689C 191.545 21.4679 78.0387 17.7435 0.466457 -1.84704L -0.466452 1.84697Z"/>
<path id="path15_stroke" d="M 391.009 380.263C 391.803 380.954 393.006 380.87 393.697 380.077C 394.388 379.283 394.304 378.08 393.511 377.389L 391.009 380.263ZM 160.767 152.406L 159.353 153.682L 159.358 153.688L 160.767 152.406ZM 19.6719 0.0863049L 19.3932 1.97081L 19.5728 1.99737L 19.7542 1.98952L 19.6719 0.0863049ZM 156.896 623.154L 158.403 621.989L 158.295 621.849L 158.162 621.731L 156.896 623.154ZM 238.801 666.746C 239.822 667.001 240.856 666.38 241.111 665.36C 241.366 664.339 240.745 663.305 239.725 663.05L 238.801 666.746ZM 393.511 377.389C 312.082 306.507 234.841 230.958 162.176 151.123L 159.358 153.688C 232.122 233.631 309.47 309.284 391.009 380.263L 393.511 377.389ZM 162.181 151.129C 117.112 101.223 86.4031 63.0014 64.6315 37.2701C 53.7667 24.4294 45.0787 14.6403 37.949 8.10718C 34.3822 4.83876 31.1426 2.32611 28.1594 0.649651C 25.1798 -1.02474 22.3311 -1.93552 19.5896 -1.81691L 19.7542 1.98952C 21.5326 1.91259 23.6645 2.49413 26.2928 3.97112C 28.9175 5.44605 31.913 7.74388 35.3751 10.9162C 42.3032 17.2647 50.8479 26.8783 61.7229 39.7311C 83.4308 65.387 114.23 103.716 159.353 153.682L 162.181 151.129ZM 19.9506 -1.7982C 15.767 -2.41688 12.2968 -0.334445 9.59989 3.36036C 6.94426 6.99855 4.84008 12.4224 3.18688 19.2279C -0.129458 32.8796 -1.79316 52.8033 -1.89954 77.1413C -2.1125 125.863 3.91745 192.737 15.8267 263.6C 27.7367 334.468 45.5395 409.402 68.9023 474.233C 92.2399 538.994 121.22 593.948 155.629 624.577L 158.162 621.731C 124.495 591.762 95.7767 537.571 72.4867 472.942C 49.2219 408.382 31.4679 333.681 19.584 262.969C 7.69948 192.253 1.69867 125.603 1.91042 77.158C 2.01639 52.9128 3.67891 33.3425 6.8892 20.1272C 8.49932 13.4992 10.4586 8.64627 12.6773 5.60664C 14.8547 2.62364 17.0697 1.6272 19.3932 1.97081L 19.9506 -1.7982ZM 155.388 624.319C 170.228 643.518 200.37 657.142 238.801 666.746L 239.725 663.05C 201.389 653.47 172.392 640.088 158.403 621.989L 155.388 624.319Z"/>
<path id="path16_stroke" d="M 1.80184 -0.618342C 1.46031 -1.61347 0.376737 -2.14332 -0.61839 -1.80179C -1.61352 -1.46026 -2.14336 -0.376684 -1.80183 0.618443L 1.80184 -0.618342ZM 112.102 273.557L 113.231 272.023L 112.655 271.599L 111.943 271.659L 112.102 273.557ZM 1884.23 390.884L 1884.23 388.979L 1884.16 388.979L 1884.09 388.984L 1884.23 390.884ZM 1885.55 392.789C 1886.6 392.789 1887.45 391.936 1887.45 390.884C 1887.45 389.832 1886.6 388.979 1885.55 388.979L 1885.55 392.789ZM -1.80183 0.618443C -0.838503 3.42534 22.2655 72.2569 47.5942 140.177C 60.2566 174.131 73.4887 207.896 84.7979 233.082C 90.4483 245.666 95.6444 256.167 100.07 263.492C 102.277 267.145 104.339 270.087 106.216 272.113C 107.153 273.125 108.1 273.969 109.051 274.555C 109.992 275.135 111.088 275.553 112.26 275.456L 111.943 271.659C 111.883 271.664 111.608 271.656 111.049 271.311C 110.501 270.973 109.82 270.397 109.011 269.524C 107.394 267.779 105.489 265.093 103.331 261.522C 99.0272 254.398 93.9062 244.066 88.2736 231.521C 77.0167 206.451 63.8193 172.781 51.1641 138.845C 25.8575 70.9851 2.77414 2.21468 1.80184 -0.618342L -1.80183 0.618443ZM 110.973 275.092C 131.149 289.932 162.529 303.682 203.272 316.309C 244.05 328.947 294.352 340.503 352.477 350.892C 468.73 371.67 616.405 387.801 782.046 398.559C 1113.33 420.074 1516.62 420.105 1884.37 392.784L 1884.09 388.984C 1516.51 416.292 1113.41 416.261 782.293 394.757C 616.734 384.005 469.211 367.886 353.147 347.142C 295.114 336.769 244.978 325.246 204.4 312.67C 163.785 300.083 132.89 286.483 113.231 272.023L 110.973 275.092ZM 1884.23 392.789L 1885.55 392.789L 1885.55 388.979L 1884.23 388.979L 1884.23 392.789Z"/>
<path id="path17_stroke" d="M 0.498349 -1.83862C -0.517108 -2.11387 -1.56344 -1.51382 -1.83869 -0.498365C -2.11395 0.517093 -1.5139 1.56342 -0.49844 1.83868L 0.498349 -1.83862ZM 496.18 204.519L 497.118 202.861L 497.117 202.861L 496.18 204.519ZM 544.488 232.884L 545.57 231.316L 545.527 231.286L 545.481 231.258L 544.488 232.884ZM 976.916 607.507L 978.298 606.196L 978.296 606.194L 976.916 607.507ZM 1157.38 815.114L 1158.87 813.93L 1158.87 813.929L 1157.38 815.114ZM 1391.47 1251.2L 1390.18 1249.8L 1390.13 1249.85L 1390.08 1249.9L 1391.47 1251.2ZM 1005.17 960.846L 1006.51 959.497L 1006.51 959.495L 1005.17 960.846ZM 790.437 764.19L 789.24 765.672L 789.247 765.678L 789.255 765.684L 790.437 764.19ZM 771.122 749.122L 769.883 750.57L 769.924 750.605L 769.966 750.637L 771.122 749.122ZM 356.979 485.981L 356.694 487.864L 356.724 487.869L 356.754 487.872L 356.979 485.981ZM 101.451 564.521C 100.56 565.081 100.292 566.257 100.852 567.147C 101.412 568.038 102.588 568.306 103.479 567.746L 101.451 564.521ZM -4.52456e-05 3.01519e-05C -0.49844 1.83868 -0.497684 1.83888 -0.495947 1.83935C -0.494059 1.83987 -0.491342 1.8406 -0.487569 1.84163C -0.480025 1.84368 -0.468565 1.84679 -0.453205 1.85097C -0.422487 1.85933 -0.376173 1.87195 -0.314395 1.88883C -0.190839 1.92259 -0.00542739 1.97338 0.240783 2.04118C 0.733204 2.17678 1.46882 2.38044 2.43917 2.65199C 4.37989 3.19511 7.25955 4.0098 11.0105 5.09485C 18.5125 7.26495 29.4997 10.5164 43.4311 14.8393C 71.2942 23.4851 110.932 36.4162 158.019 53.5529C 252.199 87.8295 376.139 138.918 495.243 206.178L 497.117 202.861C 377.768 135.462 253.618 84.2912 159.322 49.9727C 112.169 32.8119 72.4725 19.8616 44.5602 11.2004C 30.6038 6.86979 19.5931 3.61133 12.0692 1.4349C 8.30728 0.346678 5.41697 -0.471046 3.46596 -1.01704C 2.49045 -1.29004 1.74976 -1.4951 1.25234 -1.63208C 1.00363 -1.70057 0.815738 -1.75204 0.689721 -1.78647C 0.626713 -1.80369 0.579173 -1.81664 0.547233 -1.82533C 0.531264 -1.82968 0.519194 -1.83296 0.511041 -1.83517C 0.506965 -1.83628 0.503792 -1.83714 0.501752 -1.8377C 0.49956 -1.83829 0.498349 -1.83862 -4.52456e-05 3.01519e-05ZM 495.242 206.177C 511.452 215.349 527.536 224.765 543.496 234.51L 545.481 231.258C 529.482 221.489 513.361 212.051 497.118 202.861L 495.242 206.177ZM 543.406 234.452C 702.945 344.566 850.036 476.828 975.535 608.819L 978.296 606.194C 852.658 474.056 705.37 341.611 545.57 231.316L 543.406 234.452ZM 975.534 608.818C 1042.25 679.172 1102.8 749.444 1155.89 816.298L 1158.87 813.929C 1105.71 746.989 1045.1 676.633 978.298 606.196L 975.534 608.818ZM 1155.89 816.297C 1243.09 926.215 1310.16 1027.19 1351.1 1104.61C 1371.59 1143.34 1385.49 1176.09 1392.13 1201.07C 1395.46 1213.57 1396.94 1224.03 1396.56 1232.27C 1396.19 1240.53 1393.97 1246.3 1390.18 1249.8L 1392.76 1252.6C 1397.59 1248.15 1399.97 1241.21 1400.37 1232.44C 1400.77 1223.66 1399.19 1212.78 1395.82 1200.1C 1389.06 1174.71 1375.01 1141.66 1354.47 1102.83C 1313.38 1025.14 1246.17 923.969 1158.87 813.93L 1155.89 816.297ZM 1390.08 1249.9C 1377.29 1263.51 1358.42 1263.97 1333.7 1253.34C 1309.01 1242.72 1279.17 1221.29 1245.36 1192.4C 1177.76 1134.64 1094.92 1047.64 1006.51 959.497L 1003.82 962.195C 1092.1 1050.21 1175.14 1137.41 1242.89 1195.3C 1276.75 1224.23 1306.95 1245.98 1332.2 1256.84C 1357.42 1267.69 1378.39 1267.91 1392.86 1252.5L 1390.08 1249.9ZM 1006.51 959.495C 936.496 889.919 863.37 819.456 791.619 762.695L 789.255 765.684C 860.822 822.298 933.816 892.627 1003.83 962.197L 1006.51 959.495ZM 791.633 762.707C 785.188 757.503 778.705 752.509 772.277 747.607L 769.966 750.637C 776.387 755.533 782.836 760.502 789.24 765.672L 791.633 762.707ZM 772.36 747.675C 704.173 689.343 617.999 625.586 540.141 575.365C 501.213 550.254 464.336 528.51 432.808 512.517C 401.348 496.558 375.001 486.211 357.205 484.089L 356.754 487.872C 373.82 489.908 399.642 499.964 431.084 515.914C 462.457 531.829 499.214 553.499 538.076 578.566C 615.8 628.701 701.835 692.357 769.883 750.57L 772.36 747.675ZM 357.265 484.097C 347.802 482.662 332.686 483.49 314.085 486.34C 295.429 489.198 273.097 494.119 249.121 500.976C 201.182 514.687 146.537 536.177 101.451 564.521L 103.479 567.746C 148.172 539.649 202.458 518.284 250.168 504.639C 274.016 497.819 296.189 492.936 314.662 490.106C 333.191 487.267 347.83 486.52 356.694 487.864L 357.265 484.097Z"/>
<path id="path18_stroke" d="M 845.775 602.19C 846.33 603.084 847.505 603.358 848.398 602.803C 849.292 602.248 849.567 601.074 849.012 600.18L 845.775 602.19ZM 687.766 380.487L 686.283 381.682L 686.294 381.696L 686.305 381.709L 687.766 380.487ZM 267.693 5.36973L 267.187 7.20622L 267.264 7.22756L 267.343 7.24231L 267.693 5.36973ZM -0.48967 32.3459C -1.50642 32.6163 -2.11143 33.6598 -1.84099 34.6765C -1.57055 35.6933 -0.527081 36.2983 0.48967 36.0279L -0.48967 32.3459ZM 849.012 600.18C 801.016 522.875 747.622 449.053 689.227 379.264L 686.305 381.709C 744.585 451.361 797.874 525.037 845.775 602.19L 849.012 600.18ZM 689.249 379.291C 592.871 259.695 501.04 168.307 426.634 105.561C 389.433 74.1889 356.57 49.9618 329.657 32.9453C 302.811 15.9715 281.697 6.04899 268.043 3.49715L 267.343 7.24231C 280.232 9.65114 300.822 19.2214 327.621 36.1656C 354.352 53.0672 387.074 77.1834 424.178 108.473C 498.383 171.051 590.045 262.261 686.283 381.682L 689.249 379.291ZM 268.2 3.53324C 248.329 -1.94461 221.564 -2.82365 192.743 -1.12987C 163.881 0.566312 132.788 4.85476 104.178 9.81189C 75.5628 14.7699 49.401 20.4023 30.3944 24.7946C 20.8902 26.991 13.173 28.8778 7.8302 30.2159C 5.15874 30.885 3.08075 31.417 1.66967 31.7819C 0.964119 31.9644 0.425285 32.1051 0.0623395 32.2004C -0.119134 32.248 -0.256635 32.2842 -0.349019 32.3086C -0.395211 32.3208 -0.430123 32.3301 -0.453613 32.3363C -0.465358 32.3394 -0.474247 32.3418 -0.480263 32.3434C -0.48327 32.3442 -0.485622 32.3448 -0.487128 32.3452C -0.48876 32.3456 -0.48967 32.3459 0 34.1869C 0.48967 36.0279 0.490205 36.0277 0.49146 36.0274C 0.49284 36.027 0.494815 36.0265 0.497571 36.0258C 0.503082 36.0243 0.511466 36.0221 0.522703 36.0191C 0.545178 36.0131 0.579068 36.0042 0.624232 35.9922C 0.714559 35.9684 0.849976 35.9327 1.02934 35.8856C 1.38806 35.7915 1.92255 35.6519 2.62364 35.4706C 4.02583 35.1079 6.09436 34.5784 8.75585 33.9118C 14.0789 32.5786 21.7734 30.6973 31.2523 28.5068C 50.2118 24.1253 76.3017 18.5087 104.829 13.566C 133.361 8.62233 164.3 4.35826 192.967 2.67357C 221.674 0.986485 247.933 1.89823 267.187 7.20622L 268.2 3.53324Z"/>
<path id="path19_stroke" d="M 307.296 17.2411C 308.343 17.3436 309.275 16.5779 309.378 15.5308C 309.48 14.4837 308.714 13.5518 307.667 13.4493L 307.296 17.2411ZM 0.293144 8.71724L 2.14809 9.15107L 2.14898 9.14722L 0.293144 8.71724ZM 243.812 375.477L 245.279 374.262L 245.278 374.261L 243.812 375.477ZM 409.988 561.924L 411.362 560.605L 411.362 560.605L 409.988 561.924ZM 739.168 853.183L 740.356 851.694L 740.318 851.663L 740.278 851.635L 739.168 853.183ZM 750.123 861.869L 751.305 860.375L 751.297 860.37L 751.29 860.364L 750.123 861.869ZM 1020.12 1053.83L 1021.15 1052.23L 1021.15 1052.23L 1020.12 1053.83ZM 1888.31 1412.98L 1888.22 1414.88L 1890.18 1414.97L 1890.22 1413.02L 1888.31 1412.98ZM 1652.75 766.213C 1652.19 765.322 1651.02 765.053 1650.13 765.612C 1649.23 766.171 1648.96 767.347 1649.52 768.238L 1652.75 766.213ZM 307.482 15.3452C 307.667 13.4493 307.666 13.4491 307.664 13.4489C 307.661 13.4487 307.658 13.4483 307.653 13.4479C 307.644 13.447 307.63 13.4456 307.612 13.4438C 307.575 13.4402 307.52 13.4349 307.447 13.4278C 307.302 13.4136 307.085 13.3926 306.799 13.3649C 306.227 13.3096 305.378 13.228 304.271 13.1224C 302.057 12.9114 298.81 12.6049 294.675 12.223C 286.407 11.4592 274.589 10.3937 260.392 9.18685C 231.999 6.77328 194.081 3.79367 155.993 1.53073C 117.915 -0.731577 79.6245 -2.28023 50.5029 -1.8256C 35.9543 -1.59847 23.6188 -0.870762 14.7203 0.536951C 10.2833 1.23888 6.59477 2.12542 3.88567 3.25449C 1.32107 4.32334 -1.00309 5.87194 -1.5627 8.28726L 2.14898 9.14722C 2.25347 8.69626 2.91029 7.78865 5.35136 6.77129C 7.64794 5.81415 10.9898 4.98449 15.3156 4.30015C 23.9429 2.93534 36.063 2.21029 50.5624 1.98394C 79.5367 1.5316 117.712 3.07307 155.767 5.33403C 193.811 7.59436 231.694 10.5711 260.069 12.9832C 274.256 14.1891 286.064 15.2537 294.325 16.0168C 298.455 16.3984 301.699 16.7045 303.909 16.9152C 305.015 17.0206 305.862 17.1021 306.432 17.1573C 306.717 17.1848 306.934 17.2058 307.078 17.2199C 307.151 17.2269 307.205 17.2323 307.242 17.2358C 307.26 17.2376 307.273 17.2389 307.282 17.2398C 307.287 17.2402 307.29 17.2406 307.293 17.2408C 307.295 17.241 307.296 17.2411 307.482 15.3452ZM -1.5618 8.28341C -2.03838 10.3211 -1.99676 12.8025 -1.57217 15.6107C -1.14439 18.4399 -0.308903 21.7195 0.899224 25.4087C 3.31531 32.7867 7.27177 41.9531 12.6394 52.6863C 23.3786 74.1608 39.8566 102.085 61.2458 134.831C 104.03 200.332 166.551 285.257 242.345 376.693L 245.278 374.261C 169.558 282.915 107.128 198.106 64.4356 132.747C 43.0866 100.063 26.695 72.2742 16.047 50.9822C 10.721 40.3322 6.85453 31.3518 4.52002 24.223C 3.35285 20.6588 2.58114 17.5949 2.19501 15.0411C 1.80571 12.4663 1.82674 10.5251 2.14809 9.15107L -1.5618 8.28341ZM 242.345 376.692C 292.534 437.283 348.615 500.715 408.613 563.243L 411.362 560.605C 351.433 498.149 295.413 434.786 245.279 374.262L 242.345 376.692ZM 408.613 563.243C 510.101 669.016 622.909 772.185 738.058 854.731L 740.278 851.635C 625.375 769.265 512.744 666.267 411.362 560.605L 408.613 563.243ZM 737.98 854.672C 741.635 857.587 745.277 860.524 748.956 863.375L 751.29 860.364C 747.638 857.534 744.032 854.625 740.356 851.694L 737.98 854.672ZM 748.941 863.364C 835.654 931.957 925.825 996.067 1019.1 1055.44L 1021.15 1052.23C 927.981 992.923 837.916 928.889 751.305 860.375L 748.941 863.364ZM 1019.1 1055.44C 1176.54 1155.94 1341.14 1243.26 1492.69 1306.72C 1644.21 1370.16 1782.81 1409.82 1888.22 1414.88L 1888.41 1411.07C 1783.65 1406.05 1645.53 1366.58 1494.17 1303.2C 1342.84 1239.84 1178.43 1152.62 1021.15 1052.23L 1019.1 1055.44ZM 1890.22 1413.02C 1892.29 1317.98 1864.76 1207.06 1820.84 1094.58C 1776.91 982.074 1716.53 867.871 1652.75 766.213L 1649.52 768.238C 1713.21 869.741 1773.47 983.729 1817.29 1095.97C 1861.13 1208.23 1888.46 1318.61 1886.41 1412.94L 1890.22 1413.02Z"/>
<path id="path20_stroke" d="M 246.016 1.89541C 247.063 1.78994 247.826 0.855849 247.72 -0.190955C 247.615 -1.23776 246.681 -2.00087 245.634 -1.89541L 246.016 1.89541ZM -2.01092e-05 78.6708L -1.5499 77.5631L -1.96007 78.137L -1.89752 78.8397L -2.01092e-05 78.6708ZM 204.229 357.538L 202.951 358.951L 202.952 358.952L 204.229 357.538ZM 570.352 627.308L 571.338 625.679L 571.338 625.678L 570.352 627.308ZM 906.657 777.487L 907.055 775.624L 907.011 775.614L 906.967 775.607L 906.657 777.487ZM 1623.69 804.823C 1624.72 804.579 1625.35 803.552 1625.1 802.529C 1624.86 801.505 1623.83 800.872 1622.81 801.116L 1623.69 804.823ZM 245.825 0C 245.634 -1.89541 245.633 -1.8953 245.631 -1.89512C 245.629 -1.89496 245.627 -1.8947 245.624 -1.89436C 245.617 -1.8937 245.607 -1.89272 245.595 -1.89143C 245.569 -1.88884 245.532 -1.88499 245.482 -1.87987C 245.382 -1.86961 245.234 -1.85427 245.039 -1.83377C 244.648 -1.79276 244.069 -1.73113 243.313 -1.64834C 241.801 -1.48277 239.579 -1.23259 236.739 -0.893678C 231.059 -0.215863 222.9 0.817005 212.982 2.23806C 193.149 5.07974 166.263 9.47571 138.07 15.6924C 109.886 21.9068 80.3406 29.9523 55.2098 40.1067C 30.1611 50.2278 9.16353 62.5723 -1.5499 77.5631L 1.54986 79.7784C 11.593 65.7256 31.7018 53.7145 56.6371 43.6392C 81.4902 33.5971 110.806 25.6054 138.89 19.413C 166.963 13.2229 193.75 8.84251 213.523 6.00954C 223.407 4.59327 231.536 3.56424 237.19 2.88949C 240.018 2.55212 242.227 2.30334 243.728 2.13903C 244.478 2.05688 245.051 1.99584 245.436 1.95541C 245.629 1.93519 245.774 1.92013 245.872 1.91015C 245.92 1.90516 245.956 1.90144 245.981 1.89899C 245.993 1.89776 246.002 1.89685 246.007 1.89625C 246.01 1.89595 246.012 1.89574 246.014 1.89559C 246.015 1.89546 246.016 1.89541 245.825 0ZM -1.89752 78.8397C 1.36366 115.472 23.8755 159.465 59.7742 207.193C 95.7172 254.979 145.263 306.745 202.951 358.951L 205.508 356.126C 147.924 304.014 98.5664 252.429 62.8191 204.903C 27.0274 157.317 5.06094 114.036 1.89748 78.5018L -1.89752 78.8397ZM 202.952 358.952C 308.73 454.592 442.017 551.859 569.365 628.938L 571.338 625.678C 444.171 548.709 311.083 451.584 205.507 356.125L 202.952 358.952ZM 569.365 628.938C 699.446 707.705 823.634 765.717 906.347 779.366L 906.967 775.607C 825.027 762.086 701.373 704.418 571.338 625.679L 569.365 628.938ZM 906.258 779.349C 1028.47 805.506 1183.29 817.696 1319.76 820.445C 1456.16 823.193 1574.5 816.515 1623.69 804.823L 1622.81 801.116C 1574.15 812.683 1456.24 819.384 1319.83 816.636C 1183.49 813.889 1028.94 801.709 907.055 775.624L 906.258 779.349Z"/>
<path id="path21_stroke" d="M 288.76 1.52439C 289.602 0.893388 289.773 -0.300615 289.142 -1.14249C 288.511 -1.98437 287.317 -2.15533 286.475 -1.52433L 288.76 1.52439ZM 0.197056 254.044L 1.95327 254.782L 1.96163 254.762L 1.96954 254.742L 0.197056 254.044ZM 110.61 406.692L 109.092 407.842L 109.092 407.843L 110.61 406.692ZM 312.41 753.692L 314.241 753.168L 314.24 753.161L 312.41 753.692ZM 293.671 908.069L 295.415 908.837L 295.419 908.827L 293.671 908.069ZM 288.606 920.749L 286.814 920.102L 286.578 920.756L 286.819 921.409L 288.606 920.749ZM 597.277 1206.24L 598.415 1204.72L 598.415 1204.72L 597.277 1206.24ZM 1129.37 1518.91L 1128.67 1520.68L 1128.8 1520.73L 1128.93 1520.76L 1129.37 1518.91ZM 2024.66 1583.83L 2024.58 1581.93L 2024.58 1581.93L 2024.66 1583.83ZM 2723.25 1472.08C 2723.94 1471.29 2723.86 1470.09 2723.07 1469.39C 2722.28 1468.7 2721.08 1468.78 2720.38 1469.57L 2723.25 1472.08ZM 287.617 2.76392e-05C 286.475 -1.52433 286.474 -1.52352 286.472 -1.52195C 286.47 -1.52041 286.467 -1.51809 286.462 -1.51502C 286.454 -1.50889 286.442 -1.49974 286.426 -1.48759C 286.393 -1.46329 286.345 -1.427 286.281 -1.37886C 286.153 -1.2826 285.962 -1.139 285.709 -0.949368C 285.205 -0.570109 284.456 -0.00674017 283.479 0.730249C 281.525 2.20423 278.657 4.3727 275 7.15175C 267.685 12.7098 257.212 20.7104 244.577 30.4821C 219.309 50.0246 185.389 76.6548 150.792 105.001C 116.2 133.342 80.9079 163.418 52.9031 189.848C 38.9022 203.061 26.6988 215.386 17.308 226.143C 7.96075 236.85 1.25175 246.167 -1.57543 253.346L 1.96954 254.742C 4.53742 248.222 10.8566 239.326 20.1781 228.649C 29.456 218.021 41.5618 205.79 55.5181 192.619C 83.4278 166.279 118.642 136.268 153.207 107.948C 187.768 79.6319 221.657 53.025 246.908 33.4959C 259.533 23.7317 269.997 15.7378 277.305 10.1854C 280.959 7.40918 283.823 5.24338 285.774 3.7719C 286.749 3.03616 287.496 2.47401 287.999 2.09593C 288.25 1.90688 288.441 1.76386 288.568 1.66817C 288.632 1.62032 288.68 1.58431 288.712 1.56029C 288.728 1.54828 288.74 1.53927 288.748 1.53328C 288.752 1.53028 288.755 1.52806 288.757 1.52656C 288.759 1.52509 288.76 1.52439 287.617 2.76392e-05ZM -1.55916 253.306C -2.00726 254.372 -1.96199 255.574 -1.74894 256.689C -1.52913 257.84 -1.08306 259.137 -0.471654 260.546C 0.752756 263.367 2.75697 266.899 5.407 271.052C 10.716 279.373 18.7855 290.445 28.8977 303.778C 39.0168 317.119 51.2189 332.773 64.8078 350.265C 78.4002 367.76 93.3875 387.104 109.092 407.842L 112.129 405.542C 96.4099 384.784 81.4104 365.425 67.8165 347.927C 54.2191 330.425 42.0354 314.794 31.9333 301.475C 21.8244 288.147 13.8374 277.182 8.61887 269.003C 6.00513 264.907 4.12779 261.574 3.0234 259.029C 2.4704 257.755 2.14026 256.743 1.99336 255.974C 1.8397 255.17 1.92776 254.842 1.95327 254.782L -1.55916 253.306ZM 109.092 407.843C 185.18 508.197 277.745 640.987 310.58 754.222L 314.24 753.161C 281.181 639.153 188.173 505.837 112.128 405.541L 109.092 407.843ZM 310.578 754.216C 322.597 796.233 322.284 824.298 316.879 846.847C 311.431 869.573 300.888 886.633 291.924 907.312L 295.419 908.827C 304.122 888.75 315.036 870.88 320.584 847.735C 326.175 824.413 326.398 795.667 314.241 753.168L 310.578 754.216ZM 291.928 907.302C 290.098 911.459 288.435 915.616 286.814 920.102L 290.397 921.396C 291.989 916.99 293.621 912.913 295.415 908.837L 291.928 907.302ZM 286.819 921.409C 290.905 932.472 301.973 948.135 318.635 967.207C 335.351 986.343 357.867 1009.1 385.074 1034.37C 439.491 1084.93 512.761 1145.64 596.138 1207.77L 598.415 1204.72C 515.123 1142.65 441.964 1082.02 387.667 1031.58C 360.517 1006.36 338.104 983.702 321.504 964.701C 304.849 945.635 294.214 930.433 290.393 920.089L 286.819 921.409ZM 596.138 1207.77C 756.815 1327.53 955.311 1452.75 1128.67 1520.68L 1130.06 1517.14C 957.155 1449.38 758.971 1324.39 598.415 1204.72L 596.138 1207.77ZM 1128.93 1520.76C 1205.51 1539.07 1387.39 1555.54 1566.27 1567.44C 1745.21 1579.34 1921.43 1586.68 1986.81 1586.68L 1986.81 1582.87C 1921.56 1582.87 1745.45 1575.54 1566.53 1563.64C 1387.54 1551.73 1206.02 1535.27 1129.81 1517.06L 1128.93 1520.76ZM 1986.81 1586.68C 1997.06 1586.68 2009.86 1586.35 2024.74 1585.73L 2024.58 1581.93C 2009.73 1582.55 1996.99 1582.87 1986.81 1582.87L 1986.81 1586.68ZM 2024.74 1585.73C 2112.55 1582.17 2274.15 1568.46 2420.18 1548.36C 2493.2 1538.31 2562.37 1526.66 2616.49 1513.88C 2643.55 1507.49 2666.89 1500.8 2685.1 1493.87C 2703.21 1486.98 2716.54 1479.74 2723.25 1472.08L 2720.38 1469.57C 2714.35 1476.46 2701.82 1483.43 2683.74 1490.31C 2665.76 1497.15 2642.59 1503.8 2615.61 1510.17C 2561.66 1522.91 2492.63 1534.54 2419.66 1544.58C 2273.74 1564.67 2112.26 1578.37 2024.58 1581.93L 2024.74 1585.73Z"/>
<path id="path22_stroke" d="M -0.656303 18.5162C -1.64399 18.8787 -2.15083 19.9732 -1.78836 20.9609C -1.42589 21.9486 -0.331362 22.4555 0.656328 22.093L -0.656303 18.5162ZM 235.653 8.69545L 236.074 6.83771L 236.035 6.8288L 235.995 6.82155L 235.653 8.69545ZM 501.267 134.594C 502.113 135.219 503.306 135.04 503.931 134.194C 504.556 133.347 504.377 132.155 503.53 131.53L 501.267 134.594ZM 1.25682e-05 20.3046C 0.656328 22.093 0.656128 22.0931 0.656307 22.093C 0.656872 22.0928 0.657429 22.0926 0.658558 22.0922C 0.660816 22.0913 0.664587 22.09 0.669866 22.088C 0.680426 22.0842 0.697022 22.0782 0.719626 22.07C 0.764833 22.0537 0.834067 22.0288 0.92709 21.9958C 1.11313 21.9297 1.39433 21.831 1.76875 21.7026C 2.5176 21.4457 3.63935 21.0701 5.11866 20.5996C 8.07731 19.6587 12.466 18.3384 18.162 16.8297C 29.5544 13.8123 46.1739 10.042 67.0397 7.04585C 108.774 1.05325 167.475 -1.83951 235.31 10.5694L 235.995 6.82155C 167.677 -5.67583 108.552 -2.76401 66.4982 3.27453C 45.47 6.29397 28.705 10.0959 17.1865 13.1467C 11.427 14.6722 6.97853 16.0101 3.96396 16.9688C 2.45665 17.4482 1.30775 17.8328 0.532609 18.0987C 0.145035 18.2316 -0.149106 18.3349 -0.347895 18.4055C -0.44729 18.4408 -0.522848 18.4679 -0.574329 18.4865C -0.60007 18.4958 -0.619791 18.5029 -0.633463 18.5079C -0.640299 18.5104 -0.645623 18.5123 -0.649431 18.5137C -0.651335 18.5144 -0.653054 18.5151 -0.654006 18.5154C -0.655344 18.5159 -0.656303 18.5162 1.25682e-05 20.3046ZM 235.231 10.5532C 378.097 42.982 496.724 131.24 501.267 134.594L 503.53 131.53C 498.931 128.133 379.764 39.4534 236.074 6.83771L 235.231 10.5532Z"/>
<path id="path23_stroke" d="M 49.5956 -2.51266e-05C 49.5956 -1.05213 48.7427 -1.90503 47.6906 -1.90503C 46.6385 -1.90503 45.7856 -1.05213 45.7856 -2.51266e-05L 49.5956 -2.51266e-05ZM 47.6906 0.411673L 45.7856 0.411673L 45.7856 0.832138L 45.9626 1.21354L 47.6906 0.411673ZM 80.1021 204.643L 81.956 205.081L 81.9675 205.032L 81.9764 204.983L 80.1021 204.643ZM 2.20627e-06 272.434C -1.0521 272.434 -1.905 273.287 -1.90499 274.339C -1.90499 275.391 -1.05209 276.244 7.84832e-06 276.244L 2.20627e-06 272.434ZM 45.7856 -2.51266e-05L 45.7856 0.411673L 49.5956 0.411673L 49.5956 -2.51266e-05L 45.7856 -2.51266e-05ZM 45.9626 1.21354C 47.5233 4.5768 59.9405 31.4874 69.7896 69.5203C 79.6444 107.576 86.8894 156.621 78.2278 204.302L 81.9764 204.983C 90.7766 156.539 83.4014 106.886 73.4779 68.5652C 63.5486 30.2224 51.0291 3.08033 49.4186 -0.390192L 45.9626 1.21354ZM 78.2482 204.205C 70.1595 238.426 50.5605 255.418 33.0423 263.913C 24.254 268.175 15.9631 270.308 9.87098 271.374C 6.82704 271.906 4.33861 272.172 2.62031 272.304C 1.76137 272.37 1.09553 272.402 0.649688 272.418C 0.426787 272.427 0.258944 272.43 0.149523 272.432C 0.0948146 272.433 0.0547189 272.434 0.0296564 272.434C 0.0171254 272.434 0.00835353 272.434 0.00339337 272.434C 0.000913324 272.434 -0.000613698 272.434 -0.00118112 272.434C -0.0014656 272.434 -0.00116803 272.434 -0.00131167 272.434C -0.000775682 272.434 2.20641e-06 272.434 5.02729e-06 274.339C 7.84818e-06 276.244 0.00127118 276.244 0.00277642 276.244C 0.00360202 276.244 0.00535263 276.244 0.00700334 276.244C 0.0103063 276.244 0.0145782 276.244 0.0198125 276.244C 0.0302811 276.244 0.0445994 276.244 0.0627145 276.244C 0.0989441 276.244 0.150364 276.243 0.21655 276.242C 0.348917 276.239 0.540374 276.235 0.787524 276.226C 1.28178 276.208 1.99905 276.173 2.91214 276.103C 4.73788 275.962 7.34914 275.683 10.5278 275.127C 16.8808 274.015 25.5266 271.792 34.7047 267.341C 53.1192 258.412 73.5713 240.555 81.956 205.081L 78.2482 204.205Z"/>
<path id="path24_stroke" d="M 375.033 1.536C 375.881 0.913671 376.064 -0.278517 375.442 -1.12682C 374.82 -1.97513 373.627 -2.15831 372.779 -1.53598L 375.033 1.536ZM 229.763 86.8631L 229.088 85.082L 229.049 85.0966L 229.011 85.113L 229.763 86.8631ZM 0.125853 116.167C -0.923952 116.098 -1.83132 116.892 -1.90082 117.942C -1.97031 118.992 -1.17561 119.899 -0.125807 119.969L 0.125853 116.167ZM 373.906 1.00506e-05C 372.779 -1.53598 372.779 -1.5358 372.778 -1.53537C 372.778 -1.53489 372.777 -1.5342 372.775 -1.53324C 372.773 -1.53131 372.769 -1.52837 372.763 -1.52443C 372.753 -1.51655 372.736 -1.50465 372.715 -1.4888C 372.671 -1.45709 372.606 -1.40955 372.52 -1.3466C 372.348 -1.22071 372.091 -1.0332 371.753 -0.787516C 371.076 -0.296156 370.077 0.427856 368.786 1.35692C 366.203 3.21508 362.451 5.89329 357.783 9.17077C 348.446 15.7263 335.442 24.6767 320.777 34.2568C 291.399 53.4483 255.519 75.0568 229.088 85.082L 230.439 88.6443C 257.299 78.4563 293.49 56.6333 322.861 37.4465C 337.57 27.8375 350.61 18.8621 359.972 12.289C 364.654 9.00225 368.417 6.31551 371.01 4.44979C 372.307 3.51691 373.312 2.78925 373.993 2.29443C 374.333 2.04701 374.592 1.8578 374.767 1.73025C 374.854 1.66647 374.921 1.61811 374.965 1.58559C 374.987 1.56933 375.004 1.55703 375.015 1.54875C 375.021 1.54461 375.025 1.54147 375.028 1.53935C 375.03 1.53828 375.031 1.53745 375.031 1.53691C 375.032 1.53633 375.033 1.536 373.906 1.00506e-05ZM 229.763 86.8631C 229.011 85.113 229.011 85.1129 229.011 85.113C 229.01 85.1132 229.01 85.1135 229.009 85.1139C 229.007 85.1148 229.003 85.1164 228.998 85.1185C 228.988 85.1228 228.972 85.1295 228.951 85.1385C 228.908 85.1566 228.843 85.1842 228.755 85.2209C 228.58 85.2943 228.315 85.4043 227.961 85.5481C 227.254 85.8357 226.195 86.2586 224.795 86.7949C 221.996 87.8675 217.835 89.3938 212.413 91.1993C 201.569 94.8105 185.681 99.5379 165.544 103.986C 125.267 112.883 68.0095 120.661 0.125853 116.167L -0.125807 119.969C 68.1847 124.491 125.809 116.666 166.365 107.707C 186.645 103.227 202.661 98.4626 213.617 94.8141C 219.095 92.9899 223.309 91.4444 226.158 90.3527C 227.583 89.8068 228.667 89.3743 229.397 89.0772C 229.762 88.9286 230.039 88.8138 230.226 88.7356C 230.32 88.6965 230.391 88.6665 230.439 88.646C 230.463 88.6358 230.481 88.6279 230.494 88.6224C 230.501 88.6197 230.506 88.6176 230.509 88.616C 230.511 88.6153 230.513 88.6146 230.513 88.6142C 230.515 88.6137 230.516 88.6133 229.763 86.8631Z"/>
<path id="path25_stroke" d="M 416.193 1.88996C 417.237 1.75804 417.976 0.804932 417.844 -0.238867C 417.712 -1.28267 416.759 -2.02189 415.715 -1.88996L 416.193 1.88996ZM 201.8 43.1022L 201.203 41.2932L 201.147 41.3116L 201.092 41.3334L 201.8 43.1022ZM -0.950273 132.019C -1.86211 132.544 -2.17583 133.709 -1.65097 134.621C -1.12612 135.533 0.0385447 135.846 0.950384 135.321L -0.950273 132.019ZM 415.715 -1.88996C 412.18 -1.44315 283.367 14.1772 201.203 41.2932L 202.397 44.9113C 284.143 17.9334 412.563 2.34883 416.193 1.88996L 415.715 -1.88996ZM 201.8 43.1022C 201.092 41.3334 201.092 41.3336 201.091 41.3341C 201.09 41.3345 201.088 41.3352 201.086 41.3361C 201.081 41.3379 201.074 41.3406 201.065 41.3442C 201.048 41.3513 201.021 41.3619 200.986 41.376C 200.915 41.4042 200.81 41.4463 200.671 41.502C 200.394 41.6134 199.981 41.779 199.44 41.9964C 198.359 42.4311 196.766 43.0727 194.72 43.9007C 190.627 45.5567 184.717 47.9581 177.45 50.9409C 162.917 56.9063 142.953 65.1976 121.231 74.5011C 77.8228 93.092 27.2702 115.776 -0.950273 132.019L 0.950384 135.321C 28.9455 119.208 79.2927 96.6072 122.731 78.0034C 144.431 68.7095 164.377 60.4258 178.897 54.4655C 186.157 51.4855 192.061 49.0864 196.149 47.4326C 198.193 46.6057 199.783 45.9651 200.862 45.5313C 201.401 45.3144 201.813 45.1493 202.089 45.0384C 202.228 44.9829 202.332 44.941 202.402 44.9131C 202.437 44.8991 202.463 44.8885 202.481 44.8815C 202.49 44.878 202.496 44.8754 202.5 44.8736C 202.503 44.8728 202.504 44.8721 202.505 44.8717C 202.506 44.8713 202.507 44.8711 201.8 43.1022Z"/>
<path id="path26_stroke" d="M -0.265392 100.044C -1.30723 100.191 -2.03299 101.154 -1.88642 102.196C -1.73985 103.238 -0.776451 103.963 0.265392 103.817L -0.265392 100.044ZM 256.656 50.677L 256.162 48.8373L 256.11 48.8512L 256.06 48.8678L 256.656 50.677ZM 349.27 1.2546C 349.963 0.462891 349.883 -0.740626 349.091 -1.43353C 348.299 -2.12643 347.096 -2.04632 346.403 -1.25461L 349.27 1.2546ZM 0.265392 103.817C 5.75737 103.044 177.28 78.858 257.253 52.4862L 256.06 48.8678C 176.487 75.1078 5.36221 99.2523 -0.265392 100.044L 0.265392 103.817ZM 257.151 52.5166C 288.018 44.2169 311.013 31.4409 326.305 20.7234C 333.951 15.3648 339.672 10.5199 343.492 7.00423C 345.401 5.24631 346.836 3.82038 347.798 2.82829C 348.279 2.33223 348.642 1.94459 348.887 1.67808C 349.01 1.54482 349.103 1.44185 349.167 1.37074C 349.199 1.33519 349.223 1.3076 349.241 1.28818C 349.249 1.27846 349.256 1.27079 349.261 1.26519C 349.263 1.26239 349.265 1.2601 349.267 1.25834C 349.268 1.25746 349.268 1.25652 349.269 1.25608C 349.27 1.25528 349.27 1.2546 347.837 -5.02531e-06C 346.403 -1.25461 346.403 -1.25503 346.404 -1.25531C 346.404 -1.25523 346.404 -1.25538 346.404 -1.25522C 346.403 -1.25491 346.403 -1.25407 346.401 -1.25272C 346.399 -1.25002 346.395 -1.24526 346.389 -1.23847C 346.377 -1.22488 346.357 -1.20315 346.331 -1.17347C 346.278 -1.11412 346.195 -1.02299 346.084 -0.901659C 345.86 -0.659002 345.52 -0.295585 345.063 0.175948C 344.148 1.11904 342.765 2.49443 340.911 4.201C 337.203 7.61434 331.612 12.3511 324.118 17.6034C 309.13 28.1076 286.535 40.6702 256.162 48.8373L 257.151 52.5166Z"/>
<path id="path27_stroke" d="M 0.125095 54.8689C -0.924737 54.7998 -1.8318 55.5949 -1.90089 56.6447C -1.96998 57.6945 -1.17493 58.6016 -0.125095 58.6707L 0.125095 54.8689ZM 138.871 48.1246L 139.494 49.9248L 139.525 49.9142L 139.555 49.9027L 138.871 48.1246ZM 208.304 1.33776C 209.043 0.588748 209.034 -0.617403 208.285 -1.35625C 207.536 -2.0951 206.33 -2.08685 205.591 -1.33784L 208.304 1.33776ZM 0 56.7698C -0.125095 58.6707 -0.124558 58.6707 -0.123657 58.6708C -0.12287 58.6708 -0.121604 58.6709 -0.120033 58.671C -0.116891 58.6712 -0.112296 58.6715 -0.106258 58.6719C -0.0941819 58.6727 -0.0763317 58.6738 -0.0527783 58.6754C -0.00567166 58.6784 0.0642482 58.6828 0.156416 58.6886C 0.34075 58.7002 0.614077 58.7171 0.971873 58.7385C 1.68746 58.7812 2.74095 58.8418 4.09613 58.9136C 6.80642 59.0571 10.7239 59.2452 15.5587 59.4241C 25.2271 59.7819 38.5706 60.103 53.2694 59.956C 82.5735 59.6629 117.584 57.5109 139.494 49.9248L 138.248 46.3245C 116.998 53.682 82.5726 55.8527 53.2313 56.1462C 38.6074 56.2925 25.3257 55.973 15.6996 55.6167C 10.8872 55.4387 6.99007 55.2515 4.29759 55.1089C 2.95139 55.0376 1.90645 54.9775 1.19895 54.9353C 0.845204 54.9141 0.575826 54.8975 0.395339 54.8861C 0.305097 54.8805 0.237078 54.8761 0.191848 54.8732C 0.169233 54.8718 0.152316 54.8707 0.141167 54.8699C 0.135592 54.8696 0.13146 54.8693 0.128778 54.8691C 0.127437 54.869 0.126517 54.869 0.125845 54.8689C 0.125288 54.8689 0.125095 54.8689 0 56.7698ZM 139.555 49.9027C 156.436 43.4126 173.641 31.2292 186.557 20.7563C 193.031 15.5061 198.461 10.6581 202.274 7.12143C 204.181 5.35267 205.684 3.91079 206.713 2.90924C 207.227 2.40844 207.623 2.01764 207.891 1.75102C 208.025 1.61771 208.127 1.51544 208.196 1.44598C 208.231 1.41124 208.257 1.38471 208.275 1.3666C 208.284 1.35755 208.291 1.3506 208.296 1.34578C 208.298 1.34338 208.3 1.3415 208.301 1.34016C 208.302 1.3395 208.303 1.3389 208.303 1.33856C 208.303 1.3381 208.304 1.33776 206.948 -3.51772e-05C 205.591 -1.33784 205.591 -1.3379 205.591 -1.33782C 205.591 -1.33762 205.591 -1.33741 205.591 -1.337C 205.59 -1.33619 205.588 -1.33484 205.587 -1.33296C 205.583 -1.3292 205.577 -1.32331 205.569 -1.31531C 205.553 -1.29933 205.529 -1.27495 205.497 -1.24238C 205.432 -1.17725 205.334 -1.07939 205.204 -0.950583C 204.945 -0.692959 204.559 -0.311546 204.055 0.179526C 203.046 1.16173 201.565 2.58227 199.683 4.32817C 195.918 7.82078 190.552 12.6111 184.157 17.7969C 171.333 28.1958 154.5 40.0747 138.187 46.3465L 139.555 49.9027Z"/>
<path id="path28_stroke" d="M -1.29978 42.1655C -2.06893 42.8834 -2.1105 44.0889 -1.39263 44.858C -0.674765 45.6271 0.530698 45.6687 1.29984 44.9508L -1.29978 42.1655ZM 66.3467 8.23653L 66.707 10.1072L 66.7369 10.1014L 66.7666 10.0947L 66.3467 8.23653ZM 186.109 1.90806C 187.161 1.90806 188.014 1.05516 188.014 0.00305756C 188.014 -1.04904 187.161 -1.90194 186.109 -1.90194L 186.109 1.90806ZM 3.01638e-05 43.5582C 1.29984 44.9508 1.29964 44.951 1.29956 44.9511C 1.29968 44.951 1.29971 44.951 1.29996 44.9507C 1.30046 44.9503 1.30143 44.9494 1.30285 44.9481C 1.3057 44.9454 1.31038 44.9411 1.3169 44.935C 1.32993 44.9229 1.35028 44.9041 1.37784 44.8788C 1.43297 44.8281 1.51698 44.7512 1.6291 44.6497C 1.85334 44.4467 2.18999 44.1452 2.63297 43.7573C 3.51899 42.9813 4.82991 41.8602 6.51704 40.4909C 9.89233 37.7515 14.7677 34.0237 20.754 30.082C 32.751 22.1823 49.0974 13.4985 66.707 10.1072L 65.9865 6.3659C 47.684 9.89067 30.857 18.8677 18.6587 26.8998C 12.5474 30.924 7.56954 34.7298 4.11609 37.5326C 2.38885 38.9344 1.0415 40.0865 0.122848 40.891C -0.336515 41.2933 -0.688802 41.6088 -0.927913 41.8252C -1.04747 41.9335 -1.13875 42.017 -1.20098 42.0742C -1.23209 42.1028 -1.25595 42.1248 -1.27245 42.1401C -1.2807 42.1478 -1.28711 42.1537 -1.29167 42.158C -1.29395 42.1601 -1.29576 42.1618 -1.29712 42.163C -1.29779 42.1637 -1.29846 42.1643 -1.2988 42.1646C -1.29935 42.1651 -1.29978 42.1655 3.01638e-05 43.5582ZM 66.7666 10.0947C 85.7066 5.815 114.777 3.7593 139.584 2.78139C 164.346 1.80529 184.688 1.90806 186.109 1.90806L 186.109 -1.90194C 184.688 -1.90194 164.279 -2.00502 139.434 -1.02566C 114.636 -0.0481223 85.2465 2.01291 65.9269 6.37837L 66.7666 10.0947Z"/>
<path id="path29_stroke" d="M -1.10739 96.1245C -1.96348 96.7361 -2.16167 97.9259 -1.55008 98.782C -0.938492 99.638 0.251292 99.8362 1.10737 99.2246L -1.10739 96.1245ZM 158.31 14.146L 157.77 12.3189L 157.767 12.3198L 158.31 14.146ZM 292.356 2.37895C 293.405 2.45082 294.315 1.65817 294.387 0.608523C 294.458 -0.441122 293.666 -1.35029 292.616 -1.42215L 292.356 2.37895ZM 1.10737 99.2246C 44.7298 68.0605 84.198 47.2372 112.748 34.2089C 127.023 27.695 138.567 23.1305 146.533 20.197C 150.516 18.7303 153.605 17.6715 155.693 16.9806C 156.738 16.6351 157.532 16.3817 158.063 16.2153C 158.328 16.1321 158.528 16.0706 158.66 16.0303C 158.726 16.0102 158.775 15.9953 158.807 15.9856C 158.823 15.9808 158.835 15.9773 158.842 15.975C 158.846 15.9739 158.849 15.9731 158.851 15.9726C 158.851 15.9724 158.852 15.9723 158.852 15.9722C 158.852 15.9721 158.852 15.9722 158.31 14.146C 157.767 12.3198 157.767 12.32 157.766 12.3203C 157.765 12.3205 157.764 12.3209 157.762 12.3213C 157.76 12.3221 157.756 12.3232 157.751 12.3247C 157.741 12.3276 157.727 12.3318 157.709 12.3373C 157.672 12.3484 157.619 12.3646 157.548 12.3862C 157.407 12.4293 157.198 12.4936 156.923 12.5797C 156.374 12.752 155.56 13.0115 154.497 13.3634C 152.37 14.067 149.241 15.1398 145.217 16.6217C 137.168 19.5855 125.535 24.1859 111.167 30.7427C 82.4308 43.8557 42.7442 64.7966 -1.10739 96.1245L 1.10737 99.2246ZM 158.849 15.9731C 218.346 -1.58658 289.391 2.17593 292.356 2.37895L 292.616 -1.42215C 289.569 -1.63081 217.953 -5.44303 157.77 12.3189L 158.849 15.9731Z"/>
<path id="path30_fill" d="M 461.627 -5.02531e-05L 433.54 111.275L 289.109 111.646L 258.303 210.448L 403.517 210.448L 377.283 309.99L 228.734 307.191L 192.08 409.574L 344.13 409.492L 311.06 522.043L 5.02729e-05 522.043L 166.629 -5.02531e-05L 461.627 -5.02531e-05Z"/>
<path id="path31_fill" d="M 483.742 37.2152C 512.036 70.5608 497.086 128.854 497.086 128.854C 497.086 128.854 414.389 407.227 384.655 445.143C 355.414 491.826 298.581 522.084 266.623 522.084L 2.01092e-05 522.084L 178.737 3.51772e-05L 410.271 3.51772e-05C 410.271 3.51772e-05 455.573 3.86967 483.742 37.2152ZM 341.989 170.145C 341.989 170.145 348.702 143.839 339.147 135.152C 325.392 118.685 286.72 123.873 286.72 123.873L 188.95 394.63C 188.95 394.63 255.832 394.63 266.581 382.939C 274.571 380.016 341.989 170.145 341.989 170.145Z"/>
<path id="path32_fill" d="M 336.717 -5.02531e-05C 362.951 7.03957 348.331 48.8657 348.331 48.8657C 348.331 48.8657 205.053 491.991 190.062 508.664C 175.648 522.29 161.687 522.084 161.687 522.084L -1.50819e-05 522.084L 181.661 -5.02531e-05L 336.676 -5.02531e-05L 336.717 -5.02531e-05Z"/>
<path id="path33_fill" d="M 459.774 -5.52784e-05C 549.636 -5.52784e-05 539.34 79.1237 524.35 129.142L 476.329 256.761C 455.738 299.987 418.961 314.107 395.239 314.107L 346.931 313.86L 438.111 519.944L 299.734 519.944L 242.077 380.51L 196.775 502.736C 184.75 519.203 140.518 519.861 140.518 519.861L 2.01092e-05 519.861L 203.9 0.0411523L 459.774 0.0411523L 459.774 -5.52784e-05ZM 351.255 215.799C 379.754 215.799 409.777 121.114 393.715 106.294C 386.22 93.9439 336.841 99.9955 336.841 99.9955L 293.927 215.799L 351.255 215.799Z"/>
<path id="path34_stroke" d="M 2.01092e-05 519.861L -3.54682 518.47L -5.58733 523.671L 2.01092e-05 523.671L 2.01092e-05 519.861ZM 140.601 519.861L 140.601 523.671L 140.629 523.671L 140.658 523.671L 140.601 519.861ZM 196.858 502.736L 199.934 504.983L 200.246 504.556L 200.43 504.06L 196.858 502.736ZM 242.16 380.51L 245.68 379.054L 241.966 370.07L 238.587 379.186L 242.16 380.51ZM 299.817 519.944L 296.296 521.4L 297.269 523.754L 299.817 523.754L 299.817 519.944ZM 438.193 519.944L 438.193 523.754L 444.045 523.754L 441.678 518.402L 438.193 519.944ZM 347.013 313.86L 347.033 310.05L 341.148 310.02L 343.529 315.401L 347.013 313.86ZM 395.321 314.107L 395.302 317.917L 395.312 317.917L 395.321 317.917L 395.321 314.107ZM 476.412 256.761L 479.847 258.409L 479.919 258.258L 479.978 258.103L 476.412 256.761ZM 524.432 129.142L 527.998 130.484L 528.044 130.362L 528.081 130.237L 524.432 129.142ZM 203.941 3.01519e-05L 203.941 -3.80997L 201.343 -3.80997L 200.394 -1.39139L 203.941 3.01519e-05ZM 2.01092e-05 523.671L 140.601 523.671L 140.601 516.051L 2.01092e-05 516.051L 2.01092e-05 523.671ZM 140.601 519.861C 140.658 523.671 140.658 523.671 140.659 523.671C 140.66 523.671 140.661 523.671 140.662 523.671C 140.665 523.671 140.668 523.671 140.671 523.671C 140.678 523.671 140.688 523.67 140.701 523.67C 140.726 523.67 140.761 523.669 140.807 523.668C 140.899 523.666 141.032 523.663 141.204 523.659C 141.547 523.649 142.045 523.634 142.68 523.608C 143.949 523.556 145.766 523.464 147.98 523.301C 152.4 522.975 158.44 522.366 164.884 521.225C 171.308 520.088 178.252 518.404 184.431 515.887C 190.543 513.398 196.321 509.93 199.934 504.983L 193.781 500.489C 191.381 503.775 187.121 506.564 181.557 508.83C 176.061 511.068 169.692 512.636 163.556 513.722C 157.438 514.805 151.669 515.389 147.42 515.701C 145.3 515.857 143.567 515.945 142.37 515.994C 141.772 516.018 141.308 516.033 140.997 516.041C 140.842 516.046 140.725 516.048 140.649 516.05C 140.611 516.051 140.583 516.051 140.565 516.051C 140.556 516.052 140.55 516.052 140.547 516.052C 140.545 516.052 140.544 516.052 140.543 516.052C 140.543 516.052 140.543 516.052 140.543 516.052C 140.544 516.052 140.544 516.052 140.601 519.861ZM 200.43 504.06L 245.732 381.834L 238.587 379.186L 193.285 501.412L 200.43 504.06ZM 238.639 381.966L 296.296 521.4L 303.337 518.488L 245.68 379.054L 238.639 381.966ZM 299.817 523.754L 438.193 523.754L 438.193 516.134L 299.817 516.134L 299.817 523.754ZM 441.678 518.402L 350.497 312.318L 343.529 315.401L 434.709 521.485L 441.678 518.402ZM 346.994 317.67L 395.302 317.917L 395.341 310.297L 347.033 310.05L 346.994 317.67ZM 395.321 317.917C 420.412 317.917 458.457 303 479.847 258.409L 472.977 255.113C 452.936 296.891 417.675 310.297 395.321 310.297L 395.321 317.917ZM 479.978 258.103L 527.998 130.484L 520.866 127.8L 472.846 255.419L 479.978 258.103ZM 528.081 130.237C 535.606 105.152 542.218 71.9908 535.151 44.8689C 531.582 31.173 524.487 18.8768 512.185 10.0543C 499.92 1.25833 482.864 -3.80997 459.856 -3.80997L 459.856 3.81003C 481.78 3.81003 497.134 8.63733 507.745 16.2465C 518.318 23.8292 524.561 34.4478 527.777 46.7903C 534.28 71.7451 528.249 103.155 520.783 128.047L 528.081 130.237ZM 459.856 -3.80997L 203.941 -3.80997L 203.941 3.81003L 459.856 3.81003L 459.856 -3.80997ZM 200.394 -1.39139L -3.54682 518.47L 3.54686 521.253L 207.488 1.39145L 200.394 -1.39139Z"/>
<path id="path35_stroke" d="M 0 117.332L -3.57259 116.008L -5.47506 121.142L 0 121.142L 0 117.332ZM 42.9134 1.52843L 42.441 -2.25217L 40.1448 -1.96526L 39.3408 0.204539L 42.9134 1.52843ZM 99.7879 7.82703L 96.5174 9.78148L 96.8067 10.2656L 97.2238 10.6451L 99.7879 7.82703ZM 3.57259 118.656L 46.486 2.85233L 39.3408 0.204539L -3.57259 116.008L 3.57259 118.656ZM 42.9134 1.52843C 43.3857 5.30903 43.3854 5.30907 43.3853 5.30909C 43.3855 5.30906 43.3856 5.30905 43.386 5.309C 43.3869 5.3089 43.3885 5.3087 43.3908 5.30841C 43.3954 5.30783 43.4031 5.30689 43.4136 5.3056C 43.4347 5.30301 43.4674 5.29901 43.5115 5.2937C 43.5996 5.28307 43.7331 5.26717 43.909 5.24677C 44.261 5.20596 44.7828 5.14714 45.4522 5.07632C 46.7915 4.93465 48.7196 4.74521 51.0588 4.55608C 55.7452 4.17718 62.0452 3.80253 68.5509 3.81009C 75.0918 3.81769 81.6724 4.21268 86.9847 5.31155C 89.6401 5.86081 91.8393 6.55849 93.5099 7.38775C 95.1993 8.22636 96.0934 9.07194 96.5174 9.78148L 103.058 5.87259C 101.619 3.4637 99.338 1.77363 96.8979 0.562397C 94.439 -0.658194 91.5543 -1.52455 88.5283 -2.15049C 82.4778 -3.40202 75.3057 -3.80207 68.5597 -3.8099C 61.7785 -3.81778 55.2576 -3.42826 50.4447 -3.03913C 48.0343 -2.84425 46.0432 -2.64871 44.6507 -2.5014C 43.9542 -2.42773 43.407 -2.36607 43.0313 -2.32251C 42.8435 -2.30073 42.6985 -2.28347 42.5992 -2.2715C 42.5496 -2.26551 42.5113 -2.26084 42.4848 -2.25759C 42.4716 -2.25596 42.4613 -2.25469 42.454 -2.25378C 42.4503 -2.25333 42.4474 -2.25297 42.4452 -2.2527C 42.4441 -2.25256 42.4431 -2.25243 42.4425 -2.25236C 42.4417 -2.25225 42.441 -2.25217 42.9134 1.52843ZM 97.2238 10.6451C 98.299 11.6234 99.3798 13.6919 99.9849 17.35C 100.574 20.9109 100.627 25.4657 100.143 30.7558C 99.1772 41.3186 96.1285 54.234 91.6771 66.7866C 87.2221 79.3494 81.446 91.3115 75.1521 100.051C 72.0044 104.421 68.8177 107.858 65.7153 110.172C 62.6095 112.489 59.8069 113.522 57.3276 113.522L 57.3276 121.142C 61.9731 121.142 66.3429 119.21 70.2711 116.28C 74.2027 113.348 77.9117 109.258 81.3354 104.504C 88.1842 94.9942 94.2535 82.3201 98.8589 69.3334C 103.468 56.3366 106.695 42.789 107.731 31.4496C 108.249 25.7885 108.235 20.5323 107.503 16.1065C 106.787 11.778 105.292 7.68429 102.352 5.00899L 97.2238 10.6451ZM 57.3276 113.522L 0 113.522L 0 121.142L 57.3276 121.142L 57.3276 113.522Z"/>
<path id="path36_stroke" d="M 181.661 0.0411171L 185.259 1.29328L 185.471 0.685082L 185.471 0.0411171L 181.661 0.0411171ZM -1.50819e-05 522.084L -3.59838 520.832L -5.35991 525.894L -1.50819e-05 525.894L -1.50819e-05 522.084ZM 161.687 522.084L 161.687 518.274L 161.687 518.274L 161.687 522.084ZM 190.062 508.664L 192.658 511.452L 192.774 511.345L 192.88 511.229L 190.062 508.664ZM 348.331 48.8657L 344.734 47.6085L 344.719 47.6511L 344.706 47.694L 348.331 48.8657ZM 336.717 3.51772e-05L 337.705 -3.67978L 337.219 -3.80996L 336.717 -3.80996L 336.717 3.51772e-05ZM 181.661 3.51772e-05L 181.661 -3.80996L 177.851 -3.80996L 177.851 3.51772e-05L 181.661 3.51772e-05ZM 178.063 -1.21104L -3.59838 520.832L 3.59835 523.336L 185.259 1.29328L 178.063 -1.21104ZM -1.50819e-05 525.894L 161.687 525.894L 161.687 518.274L -1.50819e-05 518.274L -1.50819e-05 525.894ZM 161.687 522.084C 161.687 525.894 161.689 525.894 161.691 525.894C 161.691 525.894 161.693 525.894 161.695 525.894C 161.697 525.894 161.7 525.894 161.704 525.894C 161.71 525.894 161.718 525.894 161.726 525.894C 161.742 525.894 161.762 525.894 161.785 525.893C 161.832 525.893 161.892 525.891 161.965 525.889C 162.111 525.885 162.31 525.876 162.558 525.86C 163.054 525.829 163.747 525.767 164.609 525.649C 166.335 525.414 168.745 524.95 171.62 524.039C 177.382 522.212 184.988 518.594 192.658 511.452L 187.466 505.875C 180.722 512.154 174.141 515.246 169.318 516.775C 166.901 517.541 164.92 517.916 163.577 518.1C 162.906 518.191 162.396 518.235 162.072 518.256C 161.91 518.266 161.794 518.271 161.729 518.273C 161.697 518.274 161.676 518.274 161.669 518.274C 161.666 518.274 161.665 518.274 161.668 518.274C 161.67 518.274 161.672 518.274 161.675 518.274C 161.677 518.274 161.678 518.274 161.68 518.274C 161.681 518.274 161.683 518.274 161.683 518.274C 161.685 518.274 161.687 518.274 161.687 522.084ZM 192.88 511.229C 193.688 510.34 194.467 509.046 195.191 507.7C 195.96 506.27 196.828 504.47 197.783 502.353C 199.695 498.115 202.03 492.439 204.716 485.566C 210.09 471.81 216.933 453.096 224.707 431.145C 240.26 387.234 259.583 330.248 278.432 273.796C 297.282 217.34 315.663 161.401 329.331 119.577C 336.165 98.6646 341.821 81.2804 345.769 69.124C 347.743 63.0458 349.289 58.2745 350.343 55.0225C 350.869 53.3966 351.273 52.1505 351.544 51.3107C 351.68 50.8909 351.783 50.5726 351.852 50.3593C 351.887 50.2526 351.913 50.1722 351.93 50.1184C 351.939 50.0915 351.945 50.0712 351.95 50.0577C 351.952 50.0509 351.954 50.0458 351.955 50.0425C 351.956 50.0391 351.956 50.0373 348.331 48.8657C 344.706 47.694 344.705 47.6957 344.704 47.699C 344.703 47.7024 344.701 47.7074 344.699 47.7141C 344.695 47.7275 344.688 47.7477 344.68 47.7745C 344.662 47.8281 344.636 47.9083 344.602 48.0148C 344.533 48.2278 344.43 48.5456 344.294 48.9651C 344.023 49.804 343.62 51.0493 343.094 52.6745C 342.041 55.9247 340.495 60.6942 338.521 66.7705C 334.575 78.923 328.92 96.3027 322.088 117.21C 308.423 159.025 290.047 214.948 271.204 271.383C 252.36 327.823 233.053 384.757 217.525 428.601C 209.759 450.528 202.948 469.151 197.618 482.792C 194.951 489.618 192.671 495.155 190.837 499.22C 189.919 501.255 189.132 502.878 188.48 504.092C 187.782 505.39 187.373 505.958 187.245 506.099L 192.88 511.229ZM 348.331 48.8657C 351.927 50.1228 351.928 50.1216 351.928 50.1202C 351.929 50.1195 351.929 50.118 351.93 50.1166C 351.931 50.1139 351.932 50.1105 351.933 50.1066C 351.936 50.0986 351.94 50.0881 351.944 50.075C 351.953 50.049 351.965 50.0129 351.981 49.9671C 352.012 49.8755 352.056 49.7449 352.11 49.5778C 352.219 49.2435 352.373 48.7624 352.556 48.1533C 352.923 46.936 353.411 45.2022 353.912 43.1036C 354.907 38.9267 355.97 33.2096 356.17 27.1989C 356.367 21.2348 355.727 14.6608 353.045 8.9786C 350.284 3.13172 345.423 -1.60852 337.705 -3.67978L 335.73 3.67985C 341.128 5.1284 344.277 8.25627 346.154 12.2317C 348.108 16.3717 348.732 21.5741 348.554 26.9465C 348.377 32.2723 347.425 37.4516 346.499 41.3371C 346.039 43.2696 345.59 44.8585 345.26 45.9561C 345.095 46.5045 344.959 46.9288 344.867 47.2107C 344.821 47.3516 344.786 47.4567 344.763 47.5238C 344.752 47.5574 344.744 47.5814 344.739 47.5956C 344.736 47.6027 344.735 47.6074 344.734 47.6095C 344.734 47.6106 344.733 47.6111 344.733 47.6109C 344.733 47.6108 344.734 47.6102 344.734 47.6102C 344.734 47.6094 344.734 47.6085 348.331 48.8657ZM 336.717 -3.80996L 181.661 -3.80996L 181.661 3.81004L 336.717 3.81004L 336.717 -3.80996ZM 177.851 3.51772e-05L 177.851 0.0411171L 185.471 0.0411171L 185.471 3.51772e-05L 177.851 3.51772e-05Z"/>
<path id="path37_stroke" d="M 178.737 -5.02531e-05L 182.547 -5.02531e-05L 182.547 -22.8919L 175.132 -1.2341L 178.737 -5.02531e-05ZM 2.01092e-05 522.084L -3.60459 520.85L -5.33143 525.894L 2.01092e-05 525.894L 2.01092e-05 522.084ZM 384.655 445.143L 381.652 442.797L 381.531 442.953L 381.426 443.12L 384.655 445.143ZM 497.127 128.813L 500.779 129.899L 500.8 129.83L 500.818 129.759L 497.127 128.813ZM 410.436 0.123447L 410.748 -3.67374L 410.592 -3.68655L 410.436 -3.68655L 410.436 0.123447ZM 178.737 0.123447L 174.927 0.123447L 174.927 3.93345L 178.737 3.93345L 178.737 0.123447ZM 175.132 -1.2341L -3.60459 520.85L 3.60463 523.318L 182.341 1.234L 175.132 -1.2341ZM 2.01092e-05 525.894L 266.623 525.894L 266.623 518.274L 2.01092e-05 518.274L 2.01092e-05 525.894ZM 266.623 525.894C 283.583 525.894 306.485 517.956 328.649 504.368C 350.902 490.726 372.891 471.102 387.884 447.165L 381.426 443.12C 367.179 465.867 346.13 484.713 324.667 497.872C 303.115 511.084 281.62 518.274 266.623 518.274L 266.623 525.894ZM 387.658 447.488C 391.665 442.356 396.356 433.487 401.459 422.238C 406.605 410.895 412.303 396.826 418.283 381.073C 430.245 349.56 443.4 311.141 455.615 273.948C 467.833 236.748 479.123 200.737 487.358 174.03C 491.476 160.675 494.831 149.645 497.156 141.952C 498.319 138.106 499.224 135.094 499.839 133.043C 500.146 132.017 500.381 131.232 500.539 130.703C 500.618 130.438 500.678 130.238 500.718 130.103C 500.738 130.036 500.753 129.985 500.763 129.951C 500.769 129.934 500.772 129.921 500.775 129.913C 500.776 129.908 500.777 129.905 500.778 129.903C 500.779 129.901 500.779 129.899 497.127 128.813C 493.475 127.726 493.475 127.727 493.475 127.729C 493.474 127.731 493.473 127.734 493.472 127.738C 493.469 127.746 493.466 127.759 493.461 127.776C 493.451 127.809 493.436 127.859 493.416 127.926C 493.376 128.059 493.317 128.259 493.238 128.522C 493.081 129.049 492.846 129.832 492.54 130.854C 491.926 132.9 491.023 135.907 489.862 139.747C 487.54 147.429 484.19 158.445 480.077 171.785C 471.85 198.465 460.574 234.428 448.375 271.571C 436.174 308.721 423.061 347.015 411.159 378.368C 405.207 394.048 399.573 407.951 394.519 419.09C 389.423 430.325 385.047 438.45 381.652 442.797L 387.658 447.488ZM 497.127 128.813C 500.818 129.759 500.818 129.758 500.818 129.756C 500.819 129.755 500.819 129.754 500.819 129.752C 500.82 129.749 500.821 129.745 500.823 129.74C 500.825 129.73 500.829 129.716 500.833 129.699C 500.841 129.665 500.853 129.617 500.869 129.556C 500.899 129.432 500.942 129.254 500.996 129.024C 501.105 128.564 501.258 127.895 501.441 127.037C 501.806 125.322 502.292 122.85 502.783 119.786C 503.764 113.665 504.772 105.143 504.875 95.5387C 505.079 76.4799 501.727 52.4321 486.689 34.7091L 480.879 39.639C 494.134 55.2616 497.453 77.0331 497.256 95.4571C 497.158 104.594 496.197 112.729 495.259 118.58C 494.791 121.502 494.329 123.846 493.988 125.449C 493.817 126.25 493.676 126.866 493.58 127.275C 493.532 127.48 493.494 127.634 493.47 127.733C 493.458 127.783 493.449 127.819 493.443 127.841C 493.44 127.852 493.438 127.86 493.437 127.864C 493.437 127.866 493.436 127.867 493.436 127.868C 493.436 127.868 493.436 127.868 493.436 127.868C 493.436 127.867 493.437 127.866 497.127 128.813ZM 486.689 34.7091C 471.948 17.3363 452.923 7.76799 437.74 2.54162C 430.13 -0.0778278 423.428 -1.62658 418.615 -2.5223C 416.206 -2.97049 414.266 -3.25613 412.915 -3.43077C 412.24 -3.51811 411.712 -3.57774 411.345 -3.61608C 411.162 -3.63526 411.02 -3.64912 410.919 -3.65846C 410.869 -3.66313 410.83 -3.66667 410.801 -3.66918C 410.787 -3.67044 410.775 -3.67144 410.766 -3.67219C 410.762 -3.67257 410.758 -3.67289 410.755 -3.67314C 410.754 -3.67327 410.752 -3.67342 410.751 -3.67348C 410.749 -3.67362 410.748 -3.67374 410.436 0.123447C 410.123 3.92063 410.122 3.92054 410.121 3.92046C 410.121 3.92046 410.121 3.92039 410.12 3.92038C 410.12 3.92035 410.12 3.92038 410.121 3.92047C 410.124 3.92064 410.128 3.92105 410.136 3.9217C 410.151 3.923 410.176 3.92529 410.212 3.92864C 410.284 3.93536 410.398 3.94638 410.552 3.96248C 410.859 3.99469 411.327 4.04722 411.938 4.12632C 413.162 4.28456 414.963 4.54889 417.221 4.96907C 421.74 5.8101 428.069 7.27171 435.26 9.74673C 449.677 14.7093 467.326 23.6663 480.879 39.639L 486.689 34.7091ZM 410.436 -3.68655L 178.737 -3.68655L 178.737 3.93345L 410.436 3.93345L 410.436 -3.68655ZM 182.547 0.123447L 182.547 -5.02531e-05L 174.927 -5.02531e-05L 174.927 0.123447L 182.547 0.123447Z"/>
<path id="path38_stroke" d="M 166.629 -5.02531e-05L 166.629 -3.81005C 164.971 -3.81005 163.503 -2.73795 162.999 -1.15856L 166.629 -5.02531e-05ZM 5.02729e-05 522.043L -3.62954 520.885C -3.99933 522.043 -3.79384 523.309 -3.07648 524.291C -2.35911 525.273 -1.21606 525.853 5.02729e-05 525.853L 5.02729e-05 522.043ZM 311.06 522.043L 311.06 525.853C 312.75 525.853 314.239 524.739 314.715 523.117L 311.06 522.043ZM 344.13 409.492L 347.786 410.566C 348.124 409.413 347.9 408.169 347.18 407.208C 346.46 406.247 345.329 405.681 344.128 405.682L 344.13 409.492ZM 192.08 409.574L 188.493 408.29C 188.075 409.457 188.252 410.755 188.966 411.768C 189.68 412.782 190.843 413.385 192.082 413.384L 192.08 409.574ZM 228.734 307.191L 228.805 303.381C 227.17 303.351 225.698 304.367 225.147 305.907L 228.734 307.191ZM 377.283 309.99L 377.211 313.799C 378.968 313.833 380.519 312.66 380.967 310.961L 377.283 309.99ZM 403.517 210.448L 407.201 211.419C 407.502 210.276 407.256 209.058 406.535 208.122C 405.813 207.186 404.699 206.638 403.517 206.638L 403.517 210.448ZM 258.303 210.448L 254.666 209.313C 254.305 210.47 254.516 211.729 255.234 212.705C 255.952 213.681 257.092 214.258 258.303 214.258L 258.303 210.448ZM 289.109 111.646L 289.099 107.836C 287.435 107.84 285.967 108.924 285.472 110.512L 289.109 111.646ZM 433.54 111.275L 433.549 115.085C 435.291 115.081 436.808 113.896 437.234 112.208L 433.54 111.275ZM 461.627 -5.02531e-05L 465.321 0.932395C 465.608 -0.206632 465.354 -1.4146 464.633 -2.34136C 463.911 -3.26813 462.802 -3.81005 461.627 -3.81005L 461.627 -5.02531e-05ZM 162.999 -1.15856L -3.62954 520.885L 3.62964 523.202L 170.258 1.15846L 162.999 -1.15856ZM 5.02729e-05 525.853L 311.06 525.853L 311.06 518.233L 5.02729e-05 518.233L 5.02729e-05 525.853ZM 314.715 523.117L 347.786 410.566L 340.475 408.418L 307.404 520.969L 314.715 523.117ZM 344.128 405.682L 192.078 405.764L 192.082 413.384L 344.132 413.302L 344.128 405.682ZM 195.667 410.858L 232.321 308.475L 225.147 305.907L 188.493 408.29L 195.667 410.858ZM 228.662 311L 377.211 313.799L 377.355 306.181L 228.805 303.381L 228.662 311ZM 380.967 310.961L 407.201 211.419L 399.833 209.477L 373.599 309.019L 380.967 310.961ZM 403.517 206.638L 258.303 206.638L 258.303 214.258L 403.517 214.258L 403.517 206.638ZM 261.941 211.582L 292.746 112.78L 285.472 110.512L 254.666 209.313L 261.941 211.582ZM 289.119 115.456L 433.549 115.085L 433.53 107.465L 289.099 107.836L 289.119 115.456ZM 437.234 112.208L 465.321 0.932395L 457.933 -0.932495L 429.845 110.343L 437.234 112.208ZM 461.627 -3.81005L 166.629 -3.81005L 166.629 3.80995L 461.627 3.80995L 461.627 -3.81005Z"/>
<path id="path39_stroke" d="M 4.02184e-05 271.477L -3.58349 270.183L -5.42653 275.287L 4.02742e-05 275.287L 4.02184e-05 271.477ZM 97.7699 0.718956L 97.2831 -3.05982L 94.9763 -2.76268L 94.1863 -0.575045L 97.7699 0.718956ZM 150.197 11.9988L 147.288 14.4594L 147.449 14.65L 147.634 14.8179L 150.197 11.9988ZM 153.038 46.991L 156.666 48.1559L 156.701 48.0455L 156.73 47.9331L 153.038 46.991ZM 77.631 259.785L 76.3547 256.195L 75.4615 256.513L 74.8213 257.212L 77.631 259.785ZM 3.58357 272.771L 101.353 2.01296L 94.1863 -0.575045L -3.58349 270.183L 3.58357 272.771ZM 97.7699 0.718956C 98.2566 4.49774 98.2559 4.49783 98.2553 4.4979C 98.2554 4.4979 98.2549 4.49795 98.255 4.49795C 98.255 4.49794 98.2556 4.49786 98.2568 4.49771C 98.2592 4.4974 98.2639 4.49681 98.271 4.49593C 98.285 4.49418 98.3081 4.49131 98.3401 4.48742C 98.4042 4.47965 98.5038 4.46781 98.637 4.4527C 98.9035 4.42247 99.3042 4.37917 99.8237 4.32912C 100.863 4.22899 102.376 4.10212 104.238 3.99887C 107.971 3.79191 113.07 3.68212 118.562 4.06187C 124.073 4.44287 129.859 5.30894 135.017 6.99713C 140.199 8.69317 144.47 11.128 147.288 14.4594L 153.105 9.53816C 149.046 4.73895 143.325 1.69856 137.387 -0.244837C 131.425 -2.19609 124.965 -3.13366 119.088 -3.53998C 113.193 -3.94754 107.764 -3.82832 103.816 -3.60945C 101.838 -3.49979 100.222 -3.36453 99.0931 -3.25577C 98.5283 -3.20137 98.0847 -3.15353 97.778 -3.11873C 97.6246 -3.10133 97.5054 -3.08718 97.4223 -3.0771C 97.3807 -3.07206 97.3482 -3.06803 97.3249 -3.06512C 97.3133 -3.06366 97.3039 -3.06248 97.297 -3.0616C 97.2935 -3.06115 97.2906 -3.06078 97.2883 -3.06049C 97.2871 -3.06034 97.2858 -3.06017 97.2852 -3.0601C 97.2841 -3.05995 97.2831 -3.05982 97.7699 0.718956ZM 147.634 14.8179C 149.161 16.2065 150.292 18.5575 150.931 21.8554C 151.56 25.1044 151.629 28.8519 151.398 32.5121C 151.168 36.1475 150.653 39.5496 150.191 42.0537C 149.961 43.3014 149.746 44.3154 149.59 45.0111C 149.512 45.3587 149.449 45.6261 149.407 45.8028C 149.386 45.8911 149.37 45.9567 149.359 45.9982C 149.354 46.0189 149.35 46.0336 149.348 46.0421C 149.347 46.0464 149.347 46.0491 149.346 46.0503C 149.346 46.0508 149.346 46.051 149.346 46.0508C 149.346 46.0507 149.346 46.0502 149.346 46.0502C 149.346 46.0496 149.347 46.049 153.038 46.991C 156.73 47.9331 156.73 47.9322 156.73 47.9313C 156.731 47.9308 156.731 47.9298 156.731 47.9288C 156.732 47.927 156.732 47.9248 156.733 47.9222C 156.734 47.917 156.736 47.9101 156.738 47.9017C 156.742 47.8849 156.748 47.8617 156.755 47.8324C 156.77 47.7738 156.79 47.6906 156.816 47.5841C 156.867 47.3712 156.939 47.065 157.026 46.6764C 157.2 45.8995 157.435 44.7905 157.685 43.4363C 158.183 40.7366 158.749 37.0193 159.003 32.9924C 159.256 28.9903 159.211 24.5327 158.412 20.4063C 157.622 16.3288 156.009 12.1342 152.76 9.17965L 147.634 14.8179ZM 153.038 46.991C 149.411 45.8262 149.41 45.8269 149.41 45.8285C 149.409 45.8301 149.409 45.8324 149.408 45.8355C 149.406 45.8419 149.403 45.8513 149.399 45.864C 149.39 45.8893 149.378 45.9272 149.362 45.9775C 149.33 46.0781 149.281 46.2284 149.218 46.4268C 149.09 46.8235 148.9 47.4125 148.653 48.1811C 148.158 49.7182 147.43 51.9735 146.501 54.8453C 144.643 60.5888 141.979 68.7977 138.758 78.6574C 132.315 98.378 123.642 124.698 114.721 151.103C 105.798 177.516 96.6357 203.984 89.2115 224.013C 85.4962 234.037 82.2359 242.394 79.6697 248.31C 78.3816 251.279 77.3035 253.552 76.457 255.089C 76.029 255.867 75.7126 256.359 75.5067 256.633C 75.4038 256.77 75.382 256.779 75.4414 256.724C 75.4641 256.702 75.7735 256.402 76.3547 256.195L 78.9073 263.375C 79.7382 263.079 80.3263 262.589 80.6557 262.28C 81.0219 261.937 81.3349 261.56 81.5938 261.217C 82.1117 260.529 82.6274 259.681 83.132 258.765C 84.1509 256.915 85.3404 254.385 86.6604 251.342C 89.3104 245.233 92.6278 236.721 96.3565 226.662C 103.82 206.526 113.011 179.973 121.94 153.542C 130.872 127.104 139.554 100.758 146.001 81.0239C 149.225 71.1561 151.891 62.9402 153.751 57.1908C 154.681 54.316 155.409 52.0579 155.906 50.5181C 156.154 49.7482 156.344 49.158 156.472 48.76C 156.536 48.561 156.584 48.4101 156.617 48.3089C 156.633 48.2583 156.645 48.2201 156.653 48.1945C 156.658 48.1818 156.661 48.1721 156.663 48.1657C 156.664 48.1624 156.665 48.16 156.665 48.1584C 156.666 48.1567 156.666 48.1559 153.038 46.991ZM 74.8213 257.212C 74.0703 258.032 72.4992 259.051 69.8307 260.097C 67.2435 261.111 63.9734 262.018 60.1961 262.817C 52.6472 264.412 43.4621 265.492 34.493 266.218C 25.5457 266.941 16.9162 267.304 10.5161 267.485C 7.31847 267.576 4.68298 267.621 2.84956 267.644C 1.93296 267.655 1.21716 267.661 0.732165 267.664C 0.489677 267.665 0.304918 267.666 0.181638 267.666C 0.12 267.666 0.0737342 267.667 0.0433106 267.667C 0.0280989 267.667 0.016848 267.667 0.0096166 267.667C 0.00600092 267.667 0.00339015 267.667 0.00179162 267.667C 0.000992095 267.667 0.000554818 267.667 0.000153942 267.667C -3.01349e-05 267.667 4.01632e-05 267.667 4.02184e-05 271.477C 4.02735e-05 275.287 0.000621155 275.287 0.00145641 275.287C 0.00207487 275.287 0.00316567 275.287 0.00440114 275.287C 0.00687261 275.287 0.0103595 275.287 0.0148544 275.287C 0.0238443 275.287 0.0368666 275.287 0.0538625 275.287C 0.0878541 275.286 0.137742 275.286 0.203055 275.286C 0.333678 275.286 0.526016 275.285 0.776303 275.284C 1.27686 275.281 2.00932 275.275 2.94356 275.263C 4.81183 275.24 7.48838 275.194 10.7321 275.102C 17.2148 274.919 25.9853 274.551 35.1073 273.813C 44.2075 273.077 53.7608 271.965 61.7716 270.272C 65.7741 269.426 69.4891 268.415 72.6114 267.191C 75.6523 266 78.5148 264.461 80.4407 262.358L 74.8213 257.212Z"/>
</defs>
</svg>
